<svg id="master" xmlns="http://www.w3.org/2000/svg" viewBox="0 0 32 32"><title>activities</title><path d="M0,0H32V32H0ZM5.33,8A1.18,1.18,0,0,0,6.67,9.33,1.17,1.17,0,0,0,8,8,1.17,1.17,0,0,0,6.67,6.67,1.18,1.18,0,0,0,5.33,8Zm0,8a1.18,1.18,0,0,0,1.34,1.33A1.17,1.17,0,0,0,8,16a1.17,1.17,0,0,0-1.33-1.33A1.18,1.18,0,0,0,5.33,16Zm0,8a1.18,1.18,0,0,0,1.34,1.33A1.17,1.17,0,0,0,8,24a1.17,1.17,0,0,0-1.33-1.33A1.18,1.18,0,0,0,5.33,24ZM26.67,8.67V7.33h-16V8.67Zm0,8V15.33h-16v1.34Zm0,8V23.33h-16v1.34Z"/></svg>