<svg id="master" xmlns="http://www.w3.org/2000/svg" viewBox="0 0 32 32"><defs><style>.cls-1{fill:#231f20;}</style></defs><title>address</title><path class="cls-1" d="M29.71,14.86v4.57a1.14,1.14,0,0,1-1.14,1.14h-24a1.74,1.74,0,0,1-1.21-.5L.84,17.55a.57.57,0,0,1,0-.82l2.52-2.52a1.74,1.74,0,0,1,1.21-.5h9.14V10.29h4.58v3.42H28.57A1.15,1.15,0,0,1,29.71,14.86Zm1.45-8.73L28.64,8.64a1.74,1.74,0,0,1-1.21.5h-24A1.15,1.15,0,0,1,2.28,8V3.43A1.15,1.15,0,0,1,3.43,2.29H13.71V1.14A1.15,1.15,0,0,1,14.86,0h2.28a1.15,1.15,0,0,1,1.15,1.14V2.29h9.14a1.69,1.69,0,0,1,1.21.5L31.16,5.3A.59.59,0,0,1,31.16,6.13ZM18.29,21.72v9.14A1.15,1.15,0,0,1,17.14,32H14.86a1.15,1.15,0,0,1-1.15-1.14V21.72Z"/></svg>