<svg id="master" xmlns="http://www.w3.org/2000/svg" viewBox="0 0 32 32"><title>android</title><path d="M1.92,9.92a1.93,1.93,0,0,1,1.41-.59,1.93,1.93,0,0,1,1.42.59,1.92,1.92,0,0,1,.58,1.41v8a1.92,1.92,0,0,1-.58,1.42,1.92,1.92,0,0,1-1.42.58,2,2,0,0,1-2-2v-8A1.93,1.93,0,0,1,1.92,9.92ZM20.58,2.08a7.12,7.12,0,0,1,3,2.46A9.75,9.75,0,0,1,25,7.25a11.7,11.7,0,0,1,.37,2.08H6.67Q7,4,11.33,2.08L9.83.25A.24.24,0,0,1,9.92.08L10.17,0l1.58,1.92A12.48,12.48,0,0,1,16,1.17a12.25,12.25,0,0,1,4.17.75L21.83,0A.27.27,0,0,1,22,.08l.17.17ZM6.67,17V10.67H25.33V24.5c0,.78-.3,1.17-.91,1.17H22.08V30a2,2,0,0,1-2,2H20a2,2,0,0,1-1.17-.42A1.89,1.89,0,0,1,18.08,30V25.67H14V30a2,2,0,0,1-3.42,1.42A1.92,1.92,0,0,1,10,30V25.67H7.58c-.61,0-.91-.39-.91-1.17ZM11.92,6.25A1,1,0,0,0,13,5.17a1.18,1.18,0,0,0-.33-.79A1,1,0,0,0,11.92,4a1.09,1.09,0,0,0-.84.38,1.18,1.18,0,0,0-.33.79,1,1,0,0,0,.38.75A1.18,1.18,0,0,0,11.92,6.25Zm8.16,0a1.2,1.2,0,0,0,.8-.33,1,1,0,0,0,.37-.75,1.1,1.1,0,0,0-.37-.79,1.14,1.14,0,0,0-.8-.38Q19,4,19,5.17A1,1,0,0,0,20.08,6.25Zm7.17,3.67a2,2,0,0,1,3.42,1.41v8a2,2,0,1,1-4,0v-8A1.92,1.92,0,0,1,27.25,9.92Z"/></svg>