<svg id="master" xmlns="http://www.w3.org/2000/svg" viewBox="0 0 32 32"><title>apple</title><path d="M22.53,7.5a7.3,7.3,0,0,1,5.91,3.25,6.63,6.63,0,0,0-3.25,4.08A7.22,7.22,0,0,0,25.61,20a6.65,6.65,0,0,0,3.75,3.5,24.87,24.87,0,0,1-2,3.83Q24.36,32,21.94,32h-.08a6.06,6.06,0,0,1-2.38-.67,6.92,6.92,0,0,0-2.87-.66,7.11,7.11,0,0,0-3,.66,6,6,0,0,1-2.37.67h-.09Q8.7,32,5.86,27.58a19.24,19.24,0,0,1-3.08-8.83q-.42-4.66,1.33-7.25c1.67-2.67,3.83-4,6.5-4a9.58,9.58,0,0,1,3.12.67,9.44,9.44,0,0,0,2.8.66,9.07,9.07,0,0,0,2.66-.66A9.75,9.75,0,0,1,22.53,7.5ZM21.86,0a7.09,7.09,0,0,1-1.5,5.17,5.73,5.73,0,0,1-4.67,2.5h-.08a6.45,6.45,0,0,1,1.5-5A6.65,6.65,0,0,1,21.86,0Z"/></svg>