<svg id="master" xmlns="http://www.w3.org/2000/svg" viewBox="0 0 32 32"><title>arrow-right</title><path d="M22.09,4.36l9.09,9.55A2.8,2.8,0,0,1,32,16a2.71,2.71,0,0,1-.82,2l-9.09,9.64a2.76,2.76,0,0,1-3.91,0,3.09,3.09,0,0,1,0-4.19l4.37-4.54H2.82a2.66,2.66,0,0,1-2-.86,3,3,0,0,1,0-4.1,2.66,2.66,0,0,1,2-.86H22.55L18.09,8.55a2.88,2.88,0,0,1-.82-2.1,2.87,2.87,0,0,1,.82-2.09,2.87,2.87,0,0,1,4,0Z"/><path d="M22.09,4.36l9.09,9.55A2.8,2.8,0,0,1,32,16a2.71,2.71,0,0,1-.82,2l-9.09,9.64a2.76,2.76,0,0,1-3.91,0,3.09,3.09,0,0,1,0-4.19l4.37-4.54H2.82a2.66,2.66,0,0,1-2-.86,3,3,0,0,1,0-4.1,2.66,2.66,0,0,1,2-.86H22.55L18.09,8.55a2.88,2.88,0,0,1-.82-2.1,2.87,2.87,0,0,1,.82-2.09,2.87,2.87,0,0,1,4,0Z"/></svg>