<svg id="master" xmlns="http://www.w3.org/2000/svg" viewBox="0 0 32 32"><title>calendar</title><path d="M31.35,2.36a.5.5,0,0,1,.57.57V31.35a.5.5,0,0,1-.57.57H.65a.5.5,0,0,1-.57-.57V2.93a.5.5,0,0,1,.57-.57h4V5.27a2.4,2.4,0,0,0,1,2A3.7,3.7,0,0,0,8,8a3.68,3.68,0,0,0,2.38-.82,2.4,2.4,0,0,0,1-1.95V2.36h9.1V5.27a2.38,2.38,0,0,0,1.06,2A3.85,3.85,0,0,0,24,8a3.61,3.61,0,0,0,2.31-.82,2.4,2.4,0,0,0,1-1.95V2.36ZM28.51,28.51V10.32h-25V28.51ZM9.68,6.26A2.22,2.22,0,0,1,8,6.9,2.19,2.19,0,0,1,5.77,4.63V2.36A2.21,2.21,0,0,1,6.41.72,2.22,2.22,0,0,1,8,.08,2.26,2.26,0,0,1,9.68.72a2.25,2.25,0,0,1,.64,1.64V4.63A2.22,2.22,0,0,1,9.68,6.26Zm15.91,0A2.18,2.18,0,0,1,24,6.9a2.19,2.19,0,0,1-2.28-2.27V2.36A2.25,2.25,0,0,1,22.32.72,2.26,2.26,0,0,1,24,.08a2.22,2.22,0,0,1,1.63.64,2.21,2.21,0,0,1,.64,1.64V4.63A2.18,2.18,0,0,1,25.59,6.26Z"/></svg>