<svg id="master" xmlns="http://www.w3.org/2000/svg" viewBox="0 0 32 32"><title>camera</title><path d="M29.38,7.62a2.57,2.57,0,0,1,1.85.73,2.39,2.39,0,0,1,.77,1.8V25.69a2.63,2.63,0,0,1-2.62,2.62H2.62a2.53,2.53,0,0,1-1.85-.77A2.53,2.53,0,0,1,0,25.69V10.15a2.39,2.39,0,0,1,.77-1.8,2.57,2.57,0,0,1,1.85-.73h5.3l3-3.08a2.35,2.35,0,0,1,1.93-.85h6.46a2.47,2.47,0,0,1,1.77.77l3.15,3.16ZM11,22.35a6.74,6.74,0,0,0,5,2.11,6.74,6.74,0,0,0,5-2.11,7.15,7.15,0,0,0,0-10.08,6.75,6.75,0,0,0-5-2.12,6.75,6.75,0,0,0-5,2.12,7.15,7.15,0,0,0,0,10.08Zm1.19-8.85a5.38,5.38,0,0,1,7.62,0,5.41,5.41,0,0,1,0,7.62A5.19,5.19,0,0,1,16,22.69a5.36,5.36,0,0,1-5.38-5.38A5.19,5.19,0,0,1,12.19,13.5Zm15.66-2.88a1.08,1.08,0,0,0,2.15,0,1.08,1.08,0,1,0-2.15,0Z"/></svg>