<svg id="master" xmlns="http://www.w3.org/2000/svg" viewBox="0 0 32 32"><title>challenge-add</title><path d="M21.78,6.53a29.88,29.88,0,0,0,0-3.79h-17V6.53H.05V8.42a14.42,14.42,0,0,0,1.3,5.74,12,12,0,0,0,3.73,4.45,13.4,13.4,0,0,0,4.56,2.07,6.43,6.43,0,0,0,2.73,1.83v2.14c-.32,1.81-2.27,2.72-5.87,2.72H5.73v1.89H20.89V27.37h-.77A11,11,0,0,1,17.25,27a5.42,5.42,0,0,1-1.75-.71,3.3,3.3,0,0,1-.85-.86,1.94,1.94,0,0,1-.36-.68,2.23,2.23,0,0,1,0-.32v-2A6.43,6.43,0,0,0,17,20.68l.52-.15a7.52,7.52,0,0,1,3.58-8.84c.12-.56.23-1.13.34-1.73a4.73,4.73,0,0,1,.09-.74c.05-.34.1-.6.14-.8h3a14.77,14.77,0,0,1-.29,2.37l.29,0a7.59,7.59,0,0,1,1.59.17,24,24,0,0,0,.31-4V6.53ZM3.07,13.34A12.76,12.76,0,0,1,1.94,8.42H5c.08.71.14,1.22.18,1.54a25.91,25.91,0,0,0,2.49,8A9.76,9.76,0,0,1,3.07,13.34Z"/><path d="M24.68,11.27a7,7,0,1,0,7,7A7,7,0,0,0,24.68,11.27Zm3.17,7.58H25.24v2.6a.56.56,0,0,1-.56.56.52.52,0,0,1-.39-.17.56.56,0,0,1-.17-.39v-2.6h-2.6a.56.56,0,0,1,0-1.12h2.6v-2.6a.57.57,0,0,1,.56-.56.56.56,0,0,1,.56.56v2.6h2.61a.56.56,0,0,1,0,1.12Z"/></svg>