<svg id="master" xmlns="http://www.w3.org/2000/svg" viewBox="0 0 32 32"><title>challenge</title><path d="M32,5.13a20,20,0,0,1-1.57,8.71,14.39,14.39,0,0,1-4.5,5.36,15.69,15.69,0,0,1-5.5,2.5,7.86,7.86,0,0,1-3.29,2.21v2.36a2.13,2.13,0,0,0,0,.39,2.47,2.47,0,0,0,.43.83,4.19,4.19,0,0,0,1,1,6.69,6.69,0,0,0,2.11.86,13.57,13.57,0,0,0,3.46.39h.93v2.29H6.86V29.77h.93q6.5,0,7.07-3.28V23.91a7.86,7.86,0,0,1-3.29-2.21,15.74,15.74,0,0,1-5.5-2.5,14.39,14.39,0,0,1-4.5-5.36A17.57,17.57,0,0,1,0,6.91V4.63H5.71V.06h20.5a34.77,34.77,0,0,1,0,4.57H32ZM3.64,12.84a11.76,11.76,0,0,0,5.5,5.57,31.83,31.83,0,0,1-3-9.64c0-.38-.12-1-.21-1.86H2.29A15.17,15.17,0,0,0,3.64,12.84Zm24.72,0a15.17,15.17,0,0,0,1.35-5.93H26.07c-.05.24-.11.56-.18,1a5.62,5.62,0,0,0-.1.89,31.83,31.83,0,0,1-3,9.64A11.68,11.68,0,0,0,28.36,12.84Z"/></svg>