<svg id="master" xmlns="http://www.w3.org/2000/svg" viewBox="0 0 32 32"><defs><style>.cls-1{fill:#231f20;}</style></defs><title>coins</title><path class="cls-1" d="M12,10a24.58,24.58,0,0,1,6,.69,13.59,13.59,0,0,1,4.38,1.81A3.12,3.12,0,0,1,24,15a3.12,3.12,0,0,1-1.62,2.5A13.59,13.59,0,0,1,18,19.31,24.58,24.58,0,0,1,12,20a24.58,24.58,0,0,1-6-.69A13.43,13.43,0,0,1,1.63,17.5,3.11,3.11,0,0,1,0,15a3.11,3.11,0,0,1,1.63-2.5A13.43,13.43,0,0,1,6,10.69,24.58,24.58,0,0,1,12,10ZM0,18.75a13.49,13.49,0,0,0,5.19,2.44A27.51,27.51,0,0,0,12,22a27.51,27.51,0,0,0,6.81-.81A13.49,13.49,0,0,0,24,18.75V22c0,.71-.54,1.38-1.62,2A14.43,14.43,0,0,1,18,25.47,32,32,0,0,1,12,26a32,32,0,0,1-6-.53A14.26,14.26,0,0,1,1.63,24C.54,23.38,0,22.71,0,22Zm0,6.56a14.67,14.67,0,0,0,5.19,2.07A35.24,35.24,0,0,0,12,28a35.24,35.24,0,0,0,6.81-.62A14.67,14.67,0,0,0,24,25.31V28c0,.71-.54,1.38-1.62,2A14.71,14.71,0,0,1,18,31.47,32,32,0,0,1,12,32a32,32,0,0,1-6-.53A14.53,14.53,0,0,1,1.63,30C.54,29.38,0,28.71,0,28ZM20,8a32,32,0,0,1-6-.53A14.26,14.26,0,0,1,9.63,6C8.54,5.38,8,4.71,8,4s.54-1.37,1.63-2A14.53,14.53,0,0,1,14,.53,32,32,0,0,1,20,0a32,32,0,0,1,6,.53A14.71,14.71,0,0,1,30.38,2C31.46,2.63,32,3.29,32,4s-.54,1.38-1.62,2A14.43,14.43,0,0,1,26,7.47,32,32,0,0,1,20,8Zm5.69,5.5a6.7,6.7,0,0,0-3.75-3.56,26.24,26.24,0,0,0,5.69-.81A13.43,13.43,0,0,0,32,7.31V10c0,.75-.57,1.44-1.72,2.06A14.88,14.88,0,0,1,25.69,13.5ZM26,19.44V15.5a14.46,14.46,0,0,0,6-2.19V16c0,.71-.54,1.38-1.62,2A14,14,0,0,1,26,19.44Z"/></svg>