<svg xmlns="http://www.w3.org/2000/svg" viewBox="0 0 32 32"><defs><style>.cls-1{fill:#1d1d1b;}</style></defs><title>cycle</title><g id="cycle"><path class="cls-1" d="M2,18.36a6.35,6.35,0,0,1,4.68-2,6.48,6.48,0,0,1,4.72,2,6.51,6.51,0,0,1,2,4.73,6.35,6.35,0,0,1-2,4.69,6.49,6.49,0,0,1-4.72,2,6.36,6.36,0,0,1-4.68-2,6.39,6.39,0,0,1-2-4.69A6.55,6.55,0,0,1,2,18.36Zm1.4,8a4.49,4.49,0,0,0,3.28,1.36A4.59,4.59,0,0,0,10,26.39a4.45,4.45,0,0,0,1.4-3.3A4.55,4.55,0,0,0,10,19.76a4.51,4.51,0,0,0-3.32-1.4,4.41,4.41,0,0,0-3.28,1.4A4.59,4.59,0,0,0,2,23.09,4.49,4.49,0,0,0,3.36,26.39ZM19.57,13.71l-2.14-3.23-3.07,3.23L17.14,16v8H14.86V17.86L10.5,15.14a2.5,2.5,0,0,1-1.36-1.93,2.24,2.24,0,0,1,.65-1.65l5.14-4.94A2.14,2.14,0,0,1,16.5,6a2.33,2.33,0,0,1,2,1.15l2.43,4.3h4.21v2.29Zm1.07,4.65a6.48,6.48,0,0,1,4.72-2,6.35,6.35,0,0,1,4.68,2,6.55,6.55,0,0,1,2,4.73,6.71,6.71,0,0,1-6.64,6.66,6.49,6.49,0,0,1-4.72-2,6.35,6.35,0,0,1-2-4.69A6.51,6.51,0,0,1,20.64,18.36Zm2.4-12a2.32,2.32,0,0,1-1.68.68,2.43,2.43,0,0,1-1.72-.68,2.27,2.27,0,0,1-.71-1.69,2.42,2.42,0,0,1,2.43-2.43A2.27,2.27,0,0,1,23,3a2.43,2.43,0,0,1,.67,1.72A2.32,2.32,0,0,1,23,6.37Zm-1,20a4.59,4.59,0,0,0,3.32,1.36A4.64,4.64,0,0,0,30,23.09a4.59,4.59,0,0,0-1.36-3.33,4.41,4.41,0,0,0-3.28-1.4,4.78,4.78,0,0,0-4.72,4.73A4.45,4.45,0,0,0,22,26.39Z"/></g></svg>