<svg xmlns="http://www.w3.org/2000/svg" viewBox="0 0 56.69 56.69"><defs><style>.cls-1{fill:#1d1d1b;}</style></defs><title>cycle</title><g id="cycle"><path class="cls-1" d="M4.7,32.33A10.65,10.65,0,0,1,12.58,29a10.84,10.84,0,0,1,7.94,3.38,10.9,10.9,0,0,1,3.37,8,10.7,10.7,0,0,1-3.37,7.9,10.94,10.94,0,0,1-7.94,3.32A10.74,10.74,0,0,1,4.7,48.2a10.79,10.79,0,0,1-3.31-7.9A11,11,0,0,1,4.7,32.33ZM7,45.85a7.53,7.53,0,0,0,5.54,2.29,7.73,7.73,0,0,0,5.6-2.29,7.49,7.49,0,0,0,2.34-5.55,7.69,7.69,0,0,0-2.34-5.62,7.63,7.63,0,0,0-5.6-2.35A7.44,7.44,0,0,0,7,34.68,7.79,7.79,0,0,0,4.76,40.3,7.59,7.59,0,0,0,7,45.85ZM34.36,24.48l-3.61-5.43-5.17,5.43,4.69,3.87V41.86H26.42V31.49L19.08,26.9c-1.53-1-2.29-2.13-2.29-3.26a3.75,3.75,0,0,1,1.09-2.78l8.66-8.32a3.58,3.58,0,0,1,2.65-1.09,4,4,0,0,1,3.37,1.93l4.09,7.24h7.1v3.86Zm1.81,7.85A10.86,10.86,0,0,1,44.11,29,10.69,10.69,0,0,1,52,32.33a11,11,0,0,1,3.31,8,11.32,11.32,0,0,1-11.2,11.22,11,11,0,0,1-7.94-3.32,10.7,10.7,0,0,1-3.37-7.9A10.9,10.9,0,0,1,36.17,32.33Zm4-20.22a3.81,3.81,0,0,1-2.83,1.15,4,4,0,0,1-2.89-1.15,3.74,3.74,0,0,1-1.2-2.83,4.11,4.11,0,0,1,4.09-4.11A3.75,3.75,0,0,1,40.2,6.38a4.09,4.09,0,0,1,1.15,2.9A3.85,3.85,0,0,1,40.2,12.11ZM38.52,45.85a7.71,7.71,0,0,0,5.59,2.29,7.52,7.52,0,0,0,5.54-2.29,7.59,7.59,0,0,0,2.29-5.55,7.8,7.8,0,0,0-2.29-5.62,7.42,7.42,0,0,0-5.54-2.35,8,8,0,0,0-7.94,8A7.46,7.46,0,0,0,38.52,45.85Z"/></g></svg>