<svg id="master" xmlns="http://www.w3.org/2000/svg" viewBox="0 0 32 32"><title>instagram</title><path d="M9.42,9.42a8.66,8.66,0,0,0-2.34,3.91H0V4A3.67,3.67,0,0,1,1.17,1.17,4.33,4.33,0,0,1,4.08,0h24a3.74,3.74,0,0,1,2.75,1.17A3.83,3.83,0,0,1,32,4v9.33H25a8.73,8.73,0,0,0-2.33-3.91A9.07,9.07,0,0,0,16,6.67,8.94,8.94,0,0,0,9.42,9.42ZM22.67,22.58A9,9,0,0,0,25.33,16H32V28a4.23,4.23,0,0,1-1.17,2.83A3.58,3.58,0,0,1,28.08,32h-24a3.85,3.85,0,0,1-2.83-1.17A3.9,3.9,0,0,1,0,28V16H6.75a8.92,8.92,0,0,0,2.67,6.58A8.94,8.94,0,0,0,16,25.33,9.07,9.07,0,0,0,22.67,22.58ZM16,22.67q-6.66,0-6.67-6.67T16,9.33q6.66,0,6.67,6.67T16,22.67ZM29.33,7V3.75A1,1,0,0,0,29,3a1,1,0,0,0-.75-.33H25.08a1.07,1.07,0,0,0-.75.33,1,1,0,0,0-.33.75V7a1,1,0,0,0,.33.75,1,1,0,0,0,.75.25h3.17A1,1,0,0,0,29,7.75,1,1,0,0,0,29.33,7Z"/></svg>