<svg xmlns="http://www.w3.org/2000/svg" viewBox="0 0 56.69 56.69"><defs><style>.cls-1{fill:#1d1d1b;}</style></defs><title>organizer</title><g id="organizer"><path class="cls-1" d="M49.17,3.12V53.58H10.81V3.12H49.17m1-3H9.82a2,2,0,0,0-2,2V54.56a2,2,0,0,0,2,2H50.15a2,2,0,0,0,2-2V2.13a2,2,0,0,0-2-2ZM19.91,9.19a1,1,0,0,0-1-1h-2a1,1,0,0,0-1,1v2a1,1,0,0,0,1,1h2a1,1,0,0,0,1-1Zm0,8.07a1,1,0,0,0-1-1h-2a1,1,0,0,0-1,1v2a1,1,0,0,0,1,1h2a1,1,0,0,0,1-1Zm0,8.06a1,1,0,0,0-1-1h-2a1,1,0,0,0-1,1v2a1,1,0,0,0,1,1h2a1,1,0,0,0,1-1Zm0,8.07a1,1,0,0,0-1-1h-2a1,1,0,0,0-1,1v2a1,1,0,0,0,1,1h2a1,1,0,0,0,1-1Zm0,8.06a1,1,0,0,0-1-1h-2a1,1,0,0,0-1,1v2a1,1,0,0,0,1,1h2a1,1,0,0,0,1-1Zm4-30.24a1,1,0,0,0,1,1h2a1,1,0,0,0,1-1v-2a1,1,0,0,0-1-1H25a1,1,0,0,0-1,1Zm0,8.06a1,1,0,0,0,1,1h2a1,1,0,0,0,1-1v-2a1,1,0,0,0-1-1H25a1,1,0,0,0-1,1Zm0,8.07a1,1,0,0,0,1,1h2a1,1,0,0,0,1-1v-2a1,1,0,0,0-1-1H25a1,1,0,0,0-1,1Zm0,8.06a1,1,0,0,0,1,1h2a1,1,0,0,0,1-1v-2a1,1,0,0,0-1-1H25a1,1,0,0,0-1,1ZM36,46c0-.85-.45-1.51-1-1.51H25c-.57,0-1,.66-1,1.51v9.08c0,.85.44,1.51,1,1.51H35c.57,0,1-.66,1-1.51Zm0-36.8a1,1,0,0,0-1-1H33a1,1,0,0,0-1,1v2a1,1,0,0,0,1,1h2a1,1,0,0,0,1-1Zm0,8.07a1,1,0,0,0-1-1H33a1,1,0,0,0-1,1v2a1,1,0,0,0,1,1h2a1,1,0,0,0,1-1Zm0,8.06a1,1,0,0,0-1-1H33a1,1,0,0,0-1,1v2a1,1,0,0,0,1,1h2a1,1,0,0,0,1-1Zm0,8.07a1,1,0,0,0-1-1H33a1,1,0,0,0-1,1v2a1,1,0,0,0,1,1h2a1,1,0,0,0,1-1ZM44.1,9.19a1,1,0,0,0-1-1h-2a1,1,0,0,0-1,1v2a1,1,0,0,0,1,1h2a1,1,0,0,0,1-1Zm0,8.07a1,1,0,0,0-1-1h-2a1,1,0,0,0-1,1v2a1,1,0,0,0,1,1h2a1,1,0,0,0,1-1Zm0,8.06a1,1,0,0,0-1-1h-2a1,1,0,0,0-1,1v2a1,1,0,0,0,1,1h2a1,1,0,0,0,1-1Zm0,8.07a1,1,0,0,0-1-1h-2a1,1,0,0,0-1,1v2a1,1,0,0,0,1,1h2a1,1,0,0,0,1-1Zm0,8.06a1,1,0,0,0-1-1h-2a1,1,0,0,0-1,1v2a1,1,0,0,0,1,1h2a1,1,0,0,0,1-1Z"/></g></svg>