<svg id="master" xmlns="http://www.w3.org/2000/svg" viewBox="0 0 32 32"><title>organizer</title><path d="M26.8,1.8V30.2H5.2V1.8H26.8M27.35.11H4.65A1.14,1.14,0,0,0,3.51,1.24V30.76a1.14,1.14,0,0,0,1.14,1.13h22.7a1.14,1.14,0,0,0,1.14-1.13V1.24A1.14,1.14,0,0,0,27.35.11Zm-17,5.11a.56.56,0,0,0-.56-.57H8.62a.56.56,0,0,0-.57.57V6.35a.56.56,0,0,0,.57.57H9.76a.56.56,0,0,0,.56-.57Zm0,4.54a.56.56,0,0,0-.56-.57H8.62a.56.56,0,0,0-.57.57v1.13a.56.56,0,0,0,.57.57H9.76a.56.56,0,0,0,.56-.57Zm0,4.54a.56.56,0,0,0-.56-.57H8.62a.56.56,0,0,0-.57.57v1.13a.56.56,0,0,0,.57.57H9.76a.56.56,0,0,0,.56-.57Zm0,4.54a.56.56,0,0,0-.56-.57H8.62a.56.56,0,0,0-.57.57V20a.56.56,0,0,0,.57.57H9.76a.56.56,0,0,0,.56-.57Zm0,4.54a.56.56,0,0,0-.56-.57H8.62a.56.56,0,0,0-.57.57v1.13a.56.56,0,0,0,.57.57H9.76a.56.56,0,0,0,.56-.57Zm2.27-17a.56.56,0,0,0,.57.57H14.3a.56.56,0,0,0,.56-.57V5.22a.56.56,0,0,0-.56-.57H13.16a.56.56,0,0,0-.57.57Zm0,4.54a.56.56,0,0,0,.57.57H14.3a.56.56,0,0,0,.56-.57V9.76a.56.56,0,0,0-.56-.57H13.16a.56.56,0,0,0-.57.57Zm0,4.54a.56.56,0,0,0,.57.57H14.3a.56.56,0,0,0,.56-.57V14.3a.56.56,0,0,0-.56-.57H13.16a.56.56,0,0,0-.57.57Zm0,4.54a.56.56,0,0,0,.57.57H14.3a.56.56,0,0,0,.56-.57V18.84a.56.56,0,0,0-.56-.57H13.16a.56.56,0,0,0-.57.57Zm6.82,6c0-.48-.25-.85-.57-.85H13.16c-.32,0-.57.37-.57.85V31c0,.48.25.85.57.85h5.68c.32,0,.57-.37.57-.85Zm0-20.71a.56.56,0,0,0-.57-.57H17.7a.56.56,0,0,0-.57.57V6.35a.56.56,0,0,0,.57.57h1.14a.56.56,0,0,0,.57-.57Zm0,4.54a.56.56,0,0,0-.57-.57H17.7a.56.56,0,0,0-.57.57v1.13a.56.56,0,0,0,.57.57h1.14a.56.56,0,0,0,.57-.57Zm0,4.54a.56.56,0,0,0-.57-.57H17.7a.56.56,0,0,0-.57.57v1.13a.56.56,0,0,0,.57.57h1.14a.56.56,0,0,0,.57-.57Zm0,4.54a.56.56,0,0,0-.57-.57H17.7a.56.56,0,0,0-.57.57V20a.56.56,0,0,0,.57.57h1.14a.56.56,0,0,0,.57-.57ZM24,5.22a.56.56,0,0,0-.57-.57H22.24a.56.56,0,0,0-.56.57V6.35a.56.56,0,0,0,.56.57h1.14A.56.56,0,0,0,24,6.35Zm0,4.54a.56.56,0,0,0-.57-.57H22.24a.56.56,0,0,0-.56.57v1.13a.56.56,0,0,0,.56.57h1.14a.56.56,0,0,0,.57-.57Zm0,4.54a.56.56,0,0,0-.57-.57H22.24a.56.56,0,0,0-.56.57v1.13a.56.56,0,0,0,.56.57h1.14a.56.56,0,0,0,.57-.57Zm0,4.54a.56.56,0,0,0-.57-.57H22.24a.56.56,0,0,0-.56.57V20a.56.56,0,0,0,.56.57h1.14A.56.56,0,0,0,24,20Zm0,4.54a.56.56,0,0,0-.57-.57H22.24a.56.56,0,0,0-.56.57v1.13a.56.56,0,0,0,.56.57h1.14a.56.56,0,0,0,.57-.57Z"/></svg>