<svg id="master" xmlns="http://www.w3.org/2000/svg" viewBox="0 0 32 32"><title>people</title><path d="M7.93,19.72a7.08,7.08,0,0,0-1.72,1.36c-.23.52-.4.79-.5.79H0A2.8,2.8,0,0,1,2.14,19s.26-.05.65-.14.71-.19,1-.29.45-.21.5-.36a5.67,5.67,0,0,0,.07-1.14,3.14,3.14,0,0,1-2.29-.5l.29-.86a3.19,3.19,0,0,0,.14-.39,1.46,1.46,0,0,0,.07-.39,19.5,19.5,0,0,0,.07-2,7.11,7.11,0,0,1,.57-3.5A2.93,2.93,0,0,1,5.93,8.15q2.93,0,3.36,2.65a9.67,9.67,0,0,1,.14,1.89v1.53a4.78,4.78,0,0,0,.36,1.72c.19.38.26.59.21.64l-.43.22a6.67,6.67,0,0,1-1.21.28,1.47,1.47,0,0,0-.65.07v.79a.45.45,0,0,0,.36.5,2.48,2.48,0,0,0,.54.14,4.42,4.42,0,0,1,.68.18,1,1,0,0,1,.42.25c.15.24.1.36-.14.36a6.15,6.15,0,0,0-1.5.35H8l-.36.15h.07A.83.83,0,0,0,7.93,19.72Zm14.71.93A5.15,5.15,0,0,1,25,22.47a4.8,4.8,0,0,1,.89,2.83H6.07A4.49,4.49,0,0,1,8,21.37a12.2,12.2,0,0,1,3.5-1.15c1.14-.14,1.76-.45,1.86-.92a11.65,11.65,0,0,0,.07-1.65.48.48,0,0,0-.14-.35,3.24,3.24,0,0,1-.58-1,16.62,16.62,0,0,1-.28-1.72.4.4,0,0,1-.47-.21,2.68,2.68,0,0,1-.28-.75,5.26,5.26,0,0,1-.11-.54c-.19-1.05-.12-1.55.22-1.5a3.21,3.21,0,0,1-.36-1.36,6,6,0,0,1,.21-2.78,3.79,3.79,0,0,1,1.79-2.07,5.18,5.18,0,0,1,5.39.21,3.92,3.92,0,0,1,1.61,2.14,5.84,5.84,0,0,1,.07,2.79,3.38,3.38,0,0,1-.29,1.07.25.25,0,0,1,.33.14,1,1,0,0,1,.07.54c0,.21-.05.4-.07.57a1.32,1.32,0,0,1-.11.39l-.14.5a1.56,1.56,0,0,1-.25.72.43.43,0,0,1-.47.14,6,6,0,0,1-.5,2.22,1,1,0,0,1-.25.35c-.17.19-.25.31-.25.36v.79a3.21,3.21,0,0,0,.14,1.07c.1.23.43.43,1,.57a6.81,6.81,0,0,0,1.47.36A6.11,6.11,0,0,1,22.64,20.65ZM7.93,19.72h0ZM29.79,19A2.82,2.82,0,0,1,32,21.87H26.29a3.55,3.55,0,0,0-1.15-1.36,5,5,0,0,0-2-1.07h-.35a1.5,1.5,0,0,1-.47-.07c-.12-.05-.15-.15-.11-.29a2,2,0,0,1,.93-.43c.72-.19,1.1-.35,1.15-.5v-1A9.22,9.22,0,0,1,23,17c-.29-.1-.55-.19-.79-.29s-.19-.35,0-.78a16.85,16.85,0,0,0,.36-3.64c.1-2.1.74-3.39,1.93-3.86a3.77,3.77,0,0,1,3.43.21,3.37,3.37,0,0,1,1.43,3.15c0,.19,0,.54,0,1.07s0,.93,0,1.21a4.75,4.75,0,0,0,.14,1.07,3,3,0,0,0,.43,1.07c.14.24.14.38,0,.43a.29.29,0,0,1-.22.07.29.29,0,0,0-.21.08l-.86.21a4.13,4.13,0,0,1-.93.07,5,5,0,0,0,.07,1.22,1.72,1.72,0,0,0,.58.35,3.48,3.48,0,0,0,.82.22A3.72,3.72,0,0,1,29.79,19Z"/></svg>