<svg id="master" xmlns="http://www.w3.org/2000/svg" viewBox="0 0 32 32"><title>prize</title><path d="M8.26,15.86A9.75,9.75,0,0,0,16,19.39a9.33,9.33,0,0,0,2.41-.28L16,24.34l-3.39,7.48L9.18,26.17H2.4Zm1.31-13A8.71,8.71,0,0,1,16,.18a8.71,8.71,0,0,1,6.4,2.65A8.71,8.71,0,0,1,25,9.22a8.73,8.73,0,0,1-2.65,6.39A8.71,8.71,0,0,1,16,18.26a8.71,8.71,0,0,1-6.39-2.65A8.73,8.73,0,0,1,6.92,9.22,8.71,8.71,0,0,1,9.57,2.83ZM11.16,14A6.54,6.54,0,0,0,16,16a6.54,6.54,0,0,0,4.81-2,6.54,6.54,0,0,0,2-4.8,6.52,6.52,0,0,0-2-4.8,6.54,6.54,0,0,0-4.81-2,6.54,6.54,0,0,0-4.8,2,6.52,6.52,0,0,0-2,4.8A6.54,6.54,0,0,0,11.16,14Zm.39-9.22A6,6,0,0,1,16,3a6,6,0,0,1,4.42,1.8,6,6,0,0,1,1.8,4.42A6.15,6.15,0,0,1,16,15.43,6.15,6.15,0,0,1,9.75,9.22,6,6,0,0,1,11.55,4.8ZM23.66,15.86l5.87,10.31H22.75l-3.4,5.65-2.82-6.21,3.18-6.93A10.58,10.58,0,0,0,23.66,15.86Z"/></svg>