<svg id="master" xmlns="http://www.w3.org/2000/svg" viewBox="0 0 32 32"><title>profile</title><path d="M26.7,26.8C30.23,28.13,32,29.87,32,32H0c0-2.13,1.77-3.87,5.3-5.2a13.18,13.18,0,0,1,2.4-.55,18.59,18.59,0,0,0,1.9-.35,4.54,4.54,0,0,0,2-.9l.1-4.1a11.56,11.56,0,0,1-.9-1.8l-.7-3.2q-.7,0-.9-1.2a10.55,10.55,0,0,0-.35-1.4A4.47,4.47,0,0,1,8.6,12a1.71,1.71,0,0,1,.1-.65A.66.66,0,0,1,9,11h.1a17.86,17.86,0,0,1-.5-4.2,6.25,6.25,0,0,1,1.9-4.75A7.32,7.32,0,0,1,16,0a7.32,7.32,0,0,1,5.5,2.05A6.25,6.25,0,0,1,23.4,6.8L22.9,11c.33.07.5.4.5,1,0,.13-.2,1.07-.6,2.8a2.39,2.39,0,0,1-.3.8,1.16,1.16,0,0,1-.4.4h-.2a21,21,0,0,1-.7,3.1l-.9,1.8c-.13,2.47-.1,3.83.1,4.1a4.54,4.54,0,0,0,2,.9,18.59,18.59,0,0,0,1.9.35A13.18,13.18,0,0,1,26.7,26.8Z"/></svg>