<svg id="master" xmlns="http://www.w3.org/2000/svg" viewBox="0 0 32 32"><title>run</title><path d="M22.57,11.39l-1.93,4.2,3,7.26-1.15,9-2.59-.33.86-6.77L18,19.55l-2.31,4.76L9.81,28.77,8.37,26.65l5.15-3.94L18.3,8.41l-2.94.77-.72,5.64-2.72-.35,1-7.89,7.91-1.72a3.81,3.81,0,0,1,.89,0,2.46,2.46,0,0,1,1.95,1.54l2.45,5.25,4.91.63-.36,2.82-7.09-.91Zm2.1-5.61a2.53,2.53,0,0,0,2-.6,2.74,2.74,0,0,0,1.07-1.87,2.78,2.78,0,0,0-.56-2.08A2.6,2.6,0,0,0,23.37.74,2.8,2.8,0,0,0,22.3,2.61a2.76,2.76,0,0,0,.57,2.08A2.55,2.55,0,0,0,24.67,5.78ZM10.11,9.87H1L1,11.1h9Zm-.42,3.06H2.83l-.08,1.22H9.53Zm.81-6.06H2.21L2.12,8.09h8.2Z"/></svg>