<svg xmlns="http://www.w3.org/2000/svg" viewBox="0 0 56.69 56.69"><defs><style>.cls-1{fill:#1d1d1b;}</style></defs><title>run</title><g id="walk"><path class="cls-1" d="M38.25,21.51l-3,6.63L40,39.6,38.16,53.84l-4.09-.52,1.37-10.68L31,34.39l-3.64,7.5-9.26,7-2.28-3.35L24,39.38l7.54-22.57L26.89,18l-1.14,8.9-4.3-.55L23,13.92l12.48-2.7a6.12,6.12,0,0,1,1.41.06A3.91,3.91,0,0,1,40,13.71L43.87,22l7.74,1L51,27.45,39.86,26Zm3.31-8.84a4.14,4.14,0,0,0,3.19-.95,4.39,4.39,0,0,0,1.68-3,4.32,4.32,0,0,0-.89-3.28,4.09,4.09,0,0,0-6-.77,4.34,4.34,0,0,0-1.69,3A4.42,4.42,0,0,0,38.72,11,4.13,4.13,0,0,0,41.56,12.67Zm-23,6.44H4.25l-.08,1.94H18.33Zm-.66,4.83H7.11L7,25.88h10.7Zm1.28-9.56H6.13L6,16.31h13Z"/></g></svg>