<svg id="master" xmlns="http://www.w3.org/2000/svg" viewBox="0 0 32 32"><title>settings</title><path d="M28,17.6l3.59,2.6a.86.86,0,0,1,.15,1.07l-3.28,5.42a.67.67,0,0,1-.92.38l-4.12-1.6a15.07,15.07,0,0,1-2.75,1.6l-.61,4.2a.76.76,0,0,1-.84.61H12.72a.76.76,0,0,1-.84-.61l-.61-4.2a14.33,14.33,0,0,1-2.75-1.6L4.4,27.07c-.41.2-.72.08-.92-.38L.2,21.27c-.26-.46-.21-.82.15-1.07l3.44-2.6c0-.15,0-.4,0-.76s0-.64,0-.84,0-.48,0-.84,0-.61,0-.76L.27,11.8a.86.86,0,0,1-.15-1.07L3.41,5.31a.65.65,0,0,1,.91-.38l4.12,1.6a15.42,15.42,0,0,1,2.75-1.6L11.8.73a.76.76,0,0,1,.84-.61h6.49A.76.76,0,0,1,20,.73l.54,4.2a14.33,14.33,0,0,1,2.75,1.6l4-1.6c.41-.2.74-.08,1,.38l3.29,5.42c.25.46.2.82-.16,1.07L28,14.4c0,.15,0,.4,0,.76s0,.64,0,.84A11.66,11.66,0,0,1,28,17.6ZM11.84,20a5.52,5.52,0,0,0,4,1.6,5.65,5.65,0,0,0,4-1.6,5.27,5.27,0,0,0,1.68-4,5.27,5.27,0,0,0-1.68-4,5.65,5.65,0,0,0-4-1.6,5.52,5.52,0,0,0-4,1.6,5.34,5.34,0,0,0-1.64,4A5.34,5.34,0,0,0,11.84,20Z"/></svg>