<svg id="master" xmlns="http://www.w3.org/2000/svg" viewBox="0 0 32 32"><title>swimming</title><path d="M32,24.65v3.18l-6.36-3.18-4.24,3.18-5.3-3.18-5.31,3.18-5.3-3.18L.14,27.83V24.65l5.3-3.18,5.3,3.18,5.31-3.18,5.3,3.18,4.24-3.18Z"/><path d="M26.13,18.29a3.72,3.72,0,1,0-3.72-3.71A3.71,3.71,0,0,0,26.13,18.29Z"/><path d="M10.74,21.47l5.31-3.19,5.3,3.19,2.13-2.13-6.37-8.48,5.43-3.25a1.83,1.83,0,0,0,.94-2.06c0-.44-.77-1-1.9-1a4.17,4.17,0,0,0-.92.31l-7,3.56A1.89,1.89,0,0,0,12.87,11l2.06,3L6.5,18.28Z"/></svg>