<svg id="master" xmlns="http://www.w3.org/2000/svg" viewBox="0 0 32 32"><title>swimming</title><path id="path16388" d="M21.58,4.5a4.17,4.17,0,0,0-.92.31l-7,3.56A1.89,1.89,0,0,0,12.87,11l2.06,3L6.5,18.28l4.24,3.19,5.31-3.19,5.3,3.19,2.13-2.13-6.37-8.48,5.43-3.25a1.83,1.83,0,0,0,.94-2.06C23.47,5.11,22.71,4.5,21.58,4.5Zm4.55,6.36a3.72,3.72,0,1,0,3.71,3.72A3.71,3.71,0,0,0,26.13,10.86ZM5.44,21.47.14,24.65v3.18l5.3-3.18,5.3,3.18,5.31-3.18,5.3,3.18,4.24-3.18L32,27.83V24.65l-6.36-3.18-4.24,3.18-5.3-3.18-5.31,3.18Z"/></svg>