<svg xmlns="http://www.w3.org/2000/svg" viewBox="0 0 56.69 56.69"><defs><style>.cls-1{fill:#1d1d1b;}</style></defs><title>tjamp</title><g id="tjamp"><path class="cls-1" d="M15.64,39.67a1.5,1.5,0,0,1-.44-2.93,13,13,0,0,0,3.06-1.68,45.6,45.6,0,0,1,7.88-4.27c7.23-3.07,12.29.21,12.5.35A1.5,1.5,0,0,1,37,33.64c-.17-.1-4-2.5-9.68-.09a43.1,43.1,0,0,0-7.41,4,14.82,14.82,0,0,1-3.82,2A1.31,1.31,0,0,1,15.64,39.67Z"/><path class="cls-1" d="M15.64,39.67a1.5,1.5,0,0,1-1.19-2.41c1.36-1.78,4.66-7.14,3.6-10.54a16.25,16.25,0,0,1,.49-10.48,1.5,1.5,0,1,1,2.75,1.19,13.46,13.46,0,0,0-.38,8.39c1.75,5.59-3.84,13-4.08,13.26A1.48,1.48,0,0,1,15.64,39.67Z"/><path class="cls-1" d="M29.44,54a36.23,36.23,0,0,1-7.75-.74C10.77,50.77,2.31,48.56,1,44.55-.16,41.16-.21,37.6.82,33c1.23-5.54,3.88-15.53,7.7-20.25C13,7.23,16.09,3.83,18.59,2.82a5.92,5.92,0,0,1,5.6.23l.9.42.51.24a17.1,17.1,0,0,1,4.85,3.06l1.07.87a5.55,5.55,0,0,1,2.29,3.71A3.87,3.87,0,0,1,33.05,14l-3.66,5a7,7,0,0,1-4.76,1.87H19.17a1.5,1.5,0,0,1,0-3h5.46a4,4,0,0,0,2.62-1l3.47-4.79c.11-.16.47-.91-1.09-2.17L28.56,9.1a14.22,14.22,0,0,0-4.24-2.67l-.51-.24-.87-.41C21.47,5.11,21.1,5,19.72,5.6c-2.27.92-6.56,6.21-8.87,9.05-3.57,4.4-6.16,14.76-7.1,19-.91,4-.88,7.1.07,10S16.63,49,22.35,50.32C30.59,52.19,44,49.77,48.5,48a6.86,6.86,0,0,0,4.08-5.32c.06-1.5.4-9.45.26-13.71a4.5,4.5,0,0,0-1.37-3.39c-1.31-1.19-3.71-1.71-6.93-1.5-5.15.34-8.43,6.63-8.46,6.69a1.5,1.5,0,1,1-2.67-1.37c.16-.32,4.1-7.87,10.94-8.31,4.11-.26,7.19.49,9.14,2.26a7.45,7.45,0,0,1,2.34,5.52c.16,4.53-.22,13-.26,14V43a9.86,9.86,0,0,1-6,7.81C45.9,52.22,37.3,54,29.44,54Z"/></g></svg>