<svg id="master" xmlns="http://www.w3.org/2000/svg" viewBox="0 0 32 32"><defs><style>.cls-1{fill:#231f20;}</style></defs><title>type</title><path class="cls-1" d="M6.4,20.8a1.51,1.51,0,0,1,1.12.48A1.51,1.51,0,0,1,8,22.4v4.8a1.51,1.51,0,0,1-.48,1.12,1.51,1.51,0,0,1-1.12.48H1.6a1.51,1.51,0,0,1-1.12-.48A1.51,1.51,0,0,1,0,27.2V22.4a1.51,1.51,0,0,1,.48-1.12A1.51,1.51,0,0,1,1.6,20.8Zm-1.2-4v2.4H2.8V16.3A1.78,1.78,0,0,1,3.38,15,1.78,1.78,0,0,1,4.7,14.4H14.8V11.2h-2a1.6,1.6,0,0,1-1.6-1.6V4.8a1.62,1.62,0,0,1,1.6-1.6h6.4a1.62,1.62,0,0,1,1.6,1.6V9.6a1.6,1.6,0,0,1-1.6,1.6h-2v3.2H27.3a2,2,0,0,1,1.9,1.9v2.9H26.8V16.8H17.2v2.4H14.8V16.8Zm13.2,4A1.64,1.64,0,0,1,20,22.4v4.8a1.64,1.64,0,0,1-1.6,1.6H13.6A1.64,1.64,0,0,1,12,27.2V22.4a1.64,1.64,0,0,1,1.6-1.6Zm12,0A1.64,1.64,0,0,1,32,22.4v4.8a1.64,1.64,0,0,1-1.6,1.6H25.6A1.64,1.64,0,0,1,24,27.2V22.4a1.64,1.64,0,0,1,1.6-1.6Z"/></svg>