<svg xmlns="http://www.w3.org/2000/svg" viewBox="0 0 56.69 56.69"><defs><style>.cls-1{fill:#1d1d1b;}</style></defs><title>run</title><g id="walk"><path class="cls-1" d="M39.86,26l-1.61-4.51-3,6.63L40,39.6,38.16,53.84l-4.09-.52,1.37-10.68L31,34.39l-3.64,7.5-9.26,7-2.28-3.35L24,39.38l7.54-22.57L26.89,18l-1.14,8.9-4.3-.55L23,13.92l12.48-2.7a6.12,6.12,0,0,1,1.41.06A3.91,3.91,0,0,1,40,13.71L43.87,22l7.74,1L51,27.45Zm4.89-14.3a4.1,4.1,0,0,1-6-.77,4.42,4.42,0,0,1-.89-3.28,4.34,4.34,0,0,1,1.69-2.95,4.09,4.09,0,0,1,6,.77,4.32,4.32,0,0,1,.89,3.28A4.39,4.39,0,0,1,44.75,11.72Z"/><polygon class="cls-1" points="20.33 21.05 6.17 21.05 6.25 19.11 20.6 19.11 20.33 21.05"/><polygon class="cls-1" points="19.68 25.88 8.98 25.88 9.11 23.94 19.94 23.94 19.68 25.88"/><polygon class="cls-1" points="20.93 16.31 7.98 16.31 8.13 14.38 21.22 14.38 20.93 16.31"/></g></svg>