<svg xmlns="http://www.w3.org/2000/svg" viewBox="0 0 56.69 56.69"><defs><style>.cls-1{fill:#1d1d1b;}</style></defs><title>organizer</title><g id="organizer"><path class="cls-1" d="M49.17,3.12V53.58H10.81V3.12H49.17m1-3H9.82a2,2,0,0,0-2,2V54.56a2,2,0,0,0,2,2H50.15a2,2,0,0,0,2-2V2.13a2,2,0,0,0-2-2Z"/><rect class="cls-1" x="15.87" y="8.18" width="4.03" height="4.03" rx="1.01" ry="1.01"/><rect class="cls-1" x="15.87" y="16.25" width="4.03" height="4.03" rx="1.01" ry="1.01"/><rect class="cls-1" x="15.87" y="24.31" width="4.03" height="4.03" rx="1.01" ry="1.01"/><rect class="cls-1" x="15.87" y="32.38" width="4.03" height="4.03" rx="1.01" ry="1.01"/><rect class="cls-1" x="15.87" y="40.45" width="4.03" height="4.03" rx="1.01" ry="1.01"/><rect class="cls-1" x="23.94" y="8.18" width="4.03" height="4.03" rx="1.01" ry="1.01"/><rect class="cls-1" x="23.94" y="16.25" width="4.03" height="4.03" rx="1.01" ry="1.01"/><rect class="cls-1" x="23.94" y="24.31" width="4.03" height="4.03" rx="1.01" ry="1.01"/><rect class="cls-1" x="23.94" y="32.38" width="4.03" height="4.03" rx="1.01" ry="1.01"/><path class="cls-1" d="M36,46c0-.85-.45-1.51-1-1.51H25c-.57,0-1,.66-1,1.51v9.08c0,.85.44,1.51,1,1.51H35c.57,0,1-.66,1-1.51Z"/><rect class="cls-1" x="32" y="8.18" width="4.03" height="4.03" rx="1.01" ry="1.01"/><rect class="cls-1" x="32" y="16.25" width="4.03" height="4.03" rx="1.01" ry="1.01"/><rect class="cls-1" x="32" y="24.31" width="4.03" height="4.03" rx="1.01" ry="1.01"/><rect class="cls-1" x="32" y="32.38" width="4.03" height="4.03" rx="1.01" ry="1.01"/><rect class="cls-1" x="40.07" y="8.18" width="4.03" height="4.03" rx="1.01" ry="1.01"/><rect class="cls-1" x="40.07" y="16.25" width="4.03" height="4.03" rx="1.01" ry="1.01"/><rect class="cls-1" x="40.07" y="24.31" width="4.03" height="4.03" rx="1.01" ry="1.01"/><rect class="cls-1" x="40.07" y="32.38" width="4.03" height="4.03" rx="1.01" ry="1.01"/><rect class="cls-1" x="40.07" y="40.45" width="4.03" height="4.03" rx="1.01" ry="1.01"/></g></svg>