<svg xmlns="http://www.w3.org/2000/svg" viewBox="0 0 56.69 56.69"><defs><style>.cls-1{fill:#1d1d1b;}</style></defs><title>cycle</title><g id="cycle"><path class="cls-1" d="M4.05,32.52A11.21,11.21,0,0,1,12.33,29a11.41,11.41,0,0,1,8.34,3.54,11.41,11.41,0,0,1,3.54,8.34,11.18,11.18,0,0,1-3.54,8.27,11.51,11.51,0,0,1-8.34,3.48,11.31,11.31,0,0,1-8.28-3.48A11.3,11.3,0,0,1,.58,40.86,11.54,11.54,0,0,1,4.05,32.52ZM6.52,46.67a7.9,7.9,0,0,0,5.81,2.4,8.12,8.12,0,0,0,5.87-2.4,7.8,7.8,0,0,0,2.47-5.81A8,8,0,0,0,18.2,35a8,8,0,0,0-5.87-2.46A7.81,7.81,0,0,0,6.52,35a8.13,8.13,0,0,0-2.4,5.88A7.92,7.92,0,0,0,6.52,46.67ZM35.2,24.3l-3.79-5.68L26,24.3l4.92,4.05V42.5h-4V31.63l-7.71-4.8c-1.6-1.09-2.4-2.23-2.4-3.41a3.94,3.94,0,0,1,1.14-2.91L27,11.79a3.79,3.79,0,0,1,2.78-1.13,4.13,4.13,0,0,1,3.53,2l4.3,7.58h7.45v4Zm1.9,8.22A11.38,11.38,0,0,1,45.44,29a11.21,11.21,0,0,1,8.27,3.54,11.51,11.51,0,0,1,3.48,8.34A11.88,11.88,0,0,1,45.44,52.61a11.47,11.47,0,0,1-8.34-3.48,11.18,11.18,0,0,1-3.54-8.27A11.41,11.41,0,0,1,37.1,32.52Zm4.23-21.17a4,4,0,0,1-3,1.2,4.24,4.24,0,0,1-3-1.2,3.91,3.91,0,0,1-1.27-3,4.1,4.1,0,0,1,1.27-3,4.13,4.13,0,0,1,3-1.26,3.94,3.94,0,0,1,3,1.26,4.24,4.24,0,0,1,1.2,3A4,4,0,0,1,41.33,11.35ZM39.56,46.67a8.13,8.13,0,0,0,5.88,2.4,8.19,8.19,0,0,0,8.21-8.21A8.13,8.13,0,0,0,51.25,35a7.82,7.82,0,0,0-5.81-2.46,8.4,8.4,0,0,0-8.34,8.34A7.82,7.82,0,0,0,39.56,46.67Z"/></g></svg>