<svg id="master" xmlns="http://www.w3.org/2000/svg" viewBox="0 0 32 32"><defs><style>.cls-1{fill:#1d1d1b;}</style></defs><title>walk</title><path class="cls-1" d="M18.18,14.31l-1.36-2.67L15.46,16l3.87,6.75v9H16.75V25l-3.4-4.79L9.47,31.76H6.75L12.26,9.25,9.47,10.37V16H6.75V8.12L14.3,5.45a3.74,3.74,0,0,1,.88-.07,2.44,2.44,0,0,1,2.11,1.26l3.06,4.86h4.9v2.81ZM20.08,5a2.56,2.56,0,0,1-3.81,0,2.75,2.75,0,0,1-.81-2,2.77,2.77,0,0,1,.81-2,2.58,2.58,0,0,1,3.81,0,2.74,2.74,0,0,1,.82,2A2.72,2.72,0,0,1,20.08,5Z"/></svg>