<svg id="master" xmlns="http://www.w3.org/2000/svg" viewBox="0 0 32 32"><title>walk</title><path d="M18.41,23.94c1.64.56,3.08.92,5.15,1.55C22.77,35.56,13.25,31.56,18.41,23.94Zm8.5-9.25c-.11-3-.64-7-4.88-6.36-2,.52-3.45,2.7-4.15,6.47a18.46,18.46,0,0,0,.29,6.72c.41,1.22.27,1.15.71,1.38,1.7.38,3.38.81,5.1,1.24C25.72,22.91,27.15,16.38,26.91,14.69Zm-13.08-.23a18.45,18.45,0,0,0,.29-6.72C13.42,4,12,1.79,10,1.27,5.73.65,5.2,4.62,5.09,7.64,4.85,9.33,6.28,15.86,8,17.09c1.72-.44,3.4-.86,5.1-1.24C13.56,15.61,13.42,15.69,13.83,14.46Zm-5.39,4c.79,10.06,10.31,6.07,5.15-1.55C12,17.45,10.51,17.8,8.44,18.44Z"/></svg>