<svg xmlns="http://www.w3.org/2000/svg" xmlns:xlink="http://www.w3.org/1999/xlink" width="56.69" height="399" viewBox="0 0 56.69 399"><svg viewBox="0 0 56.69 56.69" width="56.69" height="56.69" id="cycle" y="0"><path d="M4.7 32.33A10.65 10.65 0 0 1 12.58 29a10.84 10.84 0 0 1 7.94 3.38 10.9 10.9 0 0 1 3.37 8 10.7 10.7 0 0 1-3.37 7.9 10.94 10.94 0 0 1-7.94 3.32 10.74 10.74 0 0 1-7.88-3.4 10.79 10.79 0 0 1-3.31-7.9 11 11 0 0 1 3.31-7.97zM7 45.85a7.53 7.53 0 0 0 5.54 2.29 7.73 7.73 0 0 0 5.6-2.29 7.49 7.49 0 0 0 2.34-5.55 7.69 7.69 0 0 0-2.34-5.62 7.63 7.63 0 0 0-5.6-2.35A7.44 7.44 0 0 0 7 34.68a7.79 7.79 0 0 0-2.24 5.62A7.59 7.59 0 0 0 7 45.85zm27.36-21.37l-3.61-5.43-5.17 5.43 4.69 3.87v13.51h-3.85V31.49l-7.34-4.59c-1.53-1-2.29-2.13-2.29-3.26a3.75 3.75 0 0 1 1.09-2.78l8.66-8.32a3.58 3.58 0 0 1 2.65-1.09 4 4 0 0 1 3.37 1.93l4.09 7.24h7.1v3.86zm1.81 7.85A10.86 10.86 0 0 1 44.11 29 10.69 10.69 0 0 1 52 32.33a11 11 0 0 1 3.31 8 11.32 11.32 0 0 1-11.2 11.22 11 11 0 0 1-7.94-3.32 10.7 10.7 0 0 1-3.37-7.9 10.9 10.9 0 0 1 3.37-8zm4-20.22a3.81 3.81 0 0 1-2.83 1.15 4 4 0 0 1-2.89-1.15 3.74 3.74 0 0 1-1.2-2.83 4.11 4.11 0 0 1 4.09-4.11 3.75 3.75 0 0 1 2.86 1.21 4.09 4.09 0 0 1 1.15 2.9 3.85 3.85 0 0 1-1.15 2.83zm-1.65 33.74a7.71 7.71 0 0 0 5.59 2.29 7.52 7.52 0 0 0 5.54-2.29 7.59 7.59 0 0 0 2.29-5.55 7.8 7.8 0 0 0-2.29-5.62 7.42 7.42 0 0 0-5.54-2.35 8 8 0 0 0-7.94 8 7.46 7.46 0 0 0 2.35 5.52z"></path></svg><svg viewBox="0 0 56.69 56.69" width="56.69" height="56.69" id="hero" y="57"><path d="M28.35 12.68l3.73 11.22.69 2.1h13.89l-9.6 6.72L35.22 34l.72 2.13L39.64 47l-9.54-6.86-1.75-1.25-1.75 1.25L17.05 47l3.7-10.9.73-2.1-1.85-1.29L10 26h13.92l.69-2.05 3.74-11.22m0-9.49L21.76 23H.52l17.39 12.12-6.71 19.76 17.15-12.3 17.14 12.3-6.71-19.76L56.18 23H34.93L28.35 3.19z"></path></svg><svg viewBox="0 0 56.69 56.69" width="56.69" height="56.69" id="minutes" y="114"><path d="M27.39 9.92A21.71 21.71 0 1 1 5.68 31.63 21.55 21.55 0 0 1 27.39 9.92m0-3a24.71 24.71 0 1 0 17.79 7.57 24.71 24.71 0 0 0-17.79-7.57zM49.8 11.7l-2.12-2.12-4 3.95 2.12 2.12zM35.3 1H19.47v3H35.3zm-6.41 14.8h-3v15.83h3z"></path></svg><svg viewBox="0 0 56.69 56.69" width="56.69" height="56.69" id="organizer" y="171"><path d="M49.17 3.12v50.46H10.81V3.12h38.36m1-3H9.82a2 2 0 0 0-2 2v52.44a2 2 0 0 0 2 2h40.33a2 2 0 0 0 2-2V2.13a2 2 0 0 0-2-2zM19.91 9.19a1 1 0 0 0-1-1h-2a1 1 0 0 0-1 1v2a1 1 0 0 0 1 1h2a1 1 0 0 0 1-1zm0 8.07a1 1 0 0 0-1-1h-2a1 1 0 0 0-1 1v2a1 1 0 0 0 1 1h2a1 1 0 0 0 1-1zm0 8.06a1 1 0 0 0-1-1h-2a1 1 0 0 0-1 1v2a1 1 0 0 0 1 1h2a1 1 0 0 0 1-1zm0 8.07a1 1 0 0 0-1-1h-2a1 1 0 0 0-1 1v2a1 1 0 0 0 1 1h2a1 1 0 0 0 1-1zm0 8.06a1 1 0 0 0-1-1h-2a1 1 0 0 0-1 1v2a1 1 0 0 0 1 1h2a1 1 0 0 0 1-1zm4-30.24a1 1 0 0 0 1 1h2a1 1 0 0 0 1-1v-2a1 1 0 0 0-1-1H25a1 1 0 0 0-1 1zm0 8.06a1 1 0 0 0 1 1h2a1 1 0 0 0 1-1v-2a1 1 0 0 0-1-1H25a1 1 0 0 0-1 1zm0 8.07a1 1 0 0 0 1 1h2a1 1 0 0 0 1-1v-2a1 1 0 0 0-1-1H25a1 1 0 0 0-1 1zm0 8.06a1 1 0 0 0 1 1h2a1 1 0 0 0 1-1v-2a1 1 0 0 0-1-1H25a1 1 0 0 0-1 1zM36 46c0-.85-.45-1.51-1-1.51H25c-.57 0-1 .66-1 1.51v9.08c0 .85.44 1.51 1 1.51h10c.57 0 1-.66 1-1.51zm0-36.8a1 1 0 0 0-1-1h-2a1 1 0 0 0-1 1v2a1 1 0 0 0 1 1h2a1 1 0 0 0 1-1zm0 8.07a1 1 0 0 0-1-1h-2a1 1 0 0 0-1 1v2a1 1 0 0 0 1 1h2a1 1 0 0 0 1-1zm0 8.06a1 1 0 0 0-1-1h-2a1 1 0 0 0-1 1v2a1 1 0 0 0 1 1h2a1 1 0 0 0 1-1zm0 8.07a1 1 0 0 0-1-1h-2a1 1 0 0 0-1 1v2a1 1 0 0 0 1 1h2a1 1 0 0 0 1-1zm8.1-24.21a1 1 0 0 0-1-1h-2a1 1 0 0 0-1 1v2a1 1 0 0 0 1 1h2a1 1 0 0 0 1-1zm0 8.07a1 1 0 0 0-1-1h-2a1 1 0 0 0-1 1v2a1 1 0 0 0 1 1h2a1 1 0 0 0 1-1zm0 8.06a1 1 0 0 0-1-1h-2a1 1 0 0 0-1 1v2a1 1 0 0 0 1 1h2a1 1 0 0 0 1-1zm0 8.07a1 1 0 0 0-1-1h-2a1 1 0 0 0-1 1v2a1 1 0 0 0 1 1h2a1 1 0 0 0 1-1zm0 8.06a1 1 0 0 0-1-1h-2a1 1 0 0 0-1 1v2a1 1 0 0 0 1 1h2a1 1 0 0 0 1-1z"></path></svg><svg viewBox="0 0 56.69 56.69" width="56.69" height="56.69" id="run" y="228"><path d="M38.25 21.51l-3 6.63L40 39.6l-1.84 14.24-4.09-.52 1.37-10.68L31 34.39l-3.64 7.5-9.26 7-2.28-3.35L24 39.38l7.54-22.57L26.89 18l-1.14 8.9-4.3-.55L23 13.92l12.48-2.7a6.12 6.12 0 0 1 1.41.06A3.91 3.91 0 0 1 40 13.71L43.87 22l7.74 1-.61 4.45L39.86 26zm3.31-8.84a4.14 4.14 0 0 0 3.19-.95 4.39 4.39 0 0 0 1.68-3 4.32 4.32 0 0 0-.89-3.28 4.09 4.09 0 0 0-6-.77 4.34 4.34 0 0 0-1.69 3 4.42 4.42 0 0 0 .87 3.33 4.13 4.13 0 0 0 2.84 1.67zm-23 6.44H4.25l-.08 1.94h14.16zm-.66 4.83H7.11L7 25.88h10.7zm1.28-9.56H6.13L6 16.31h13z"></path></svg><svg viewBox="0 0 56.69 56.69" width="56.69" height="56.69" id="tjamp" y="285"><path class="cls-1" d="M17.82 38.67a1.5 1.5 0 0 1-.44-2.93 5.53 5.53 0 0 0 1.88-1.49 14.45 14.45 0 0 1 8.54-4.64c5.06-.93 10.2 2.28 10.39 2.39a1.5 1.5 0 0 1-1.6 2.53c-.07 0-4.36-2.71-8.25-2a11.49 11.49 0 0 0-6.95 3.81 7.73 7.73 0 0 1-3.13 2.24 1.61 1.61 0 0 1-.44.09z"></path><path class="cls-1" d="M17.82 38.67a1.49 1.49 0 0 1-1.3-2.24c0-.06 3.28-5.84 1.95-10.09A16.44 16.44 0 0 1 19 15.78 1.5 1.5 0 0 1 21.71 17a13.54 13.54 0 0 0-.38 8.46c1.72 5.51-2 12.2-2.21 12.48a1.49 1.49 0 0 1-1.3.73z"></path><path class="cls-1" d="M29.94 53.82a36.08 36.08 0 0 1-7.81-.75c-11-2.49-19.53-4.72-20.87-8.75C.12 40.9.07 37.31 1.1 32.68 2.35 27.1 5 17 8.87 12.28c4.51-5.57 7.62-9 10.14-10a6 6 0 0 1 5.63.24l.9.43.52.24A17 17 0 0 1 31 6.25l1 .87a5.56 5.56 0 0 1 2.31 3.73 3.92 3.92 0 0 1-.76 2.69l-3.67 5.06a7 7 0 0 1-4.79 1.88h-5.5a1.5 1.5 0 0 1 0-3h5.5a4 4 0 0 0 2.65-1l3.49-4.83c.12-.17.48-.93-1.09-2.2l-1.08-.88a14.15 14.15 0 0 0-4.27-2.69l-.53-.25-.87-.41c-1.48-.67-1.85-.75-3.25-.18-2.3.92-6.62 6.26-8.94 9.12C7.6 18.6 5 29.05 4 33.34c-.91 4.06-.89 7.16.07 10s12.93 5.5 18.72 6.8c8.32 1.89 21.78-.56 26.36-2.34a6.93 6.93 0 0 0 4.13-5.4l.12-1.06c.1-2.38.1-8.65.09-11.91v-1.65a3.47 3.47 0 0 0-.62-2.42c-.81-.79-3.06-.71-5.67-.63l-2.2.06c-4 .06-8.25 5.63-9.53 7.77a1.49 1.49 0 0 1-2.06.52 1.51 1.51 0 0 1-.5-2.08c.23-.37 5.55-9.13 12.06-9.23.75 0 1.46 0 2.14-.06 3.42-.11 6.12-.2 7.84 1.47a6 6 0 0 1 1.54 4.58v1.64c0 9.5 0 12.41-.26 13.5a9.9 9.9 0 0 1-6 7.68c-3.7 1.42-12.37 3.24-20.29 3.24z"></path></svg><svg viewBox="0 0 56.69 56.69" width="56.69" height="56.69" id="walk" y="342"><path d="M31.82 25.65l-2.17-4.26-2.17 7 6.18 10.76v14.32h-4.12V42.7l-5.42-7.62-6.18 18.39H13.6l8.78-35.89-4.44 1.79v9H13.6V15.79l12-4.27a6.43 6.43 0 0 1 1.4-.11 3.88 3.88 0 0 1 3.37 2l4.88 7.74h7.8v4.48zm3-14.8a4.09 4.09 0 0 1-6.07 0 4.44 4.44 0 0 1 0-6.28 4.09 4.09 0 0 1 6.07 0 4.44 4.44 0 0 1 0 6.28z"></path></svg></svg>