<svg xmlns="http://www.w3.org/2000/svg" xmlns:xlink="http://www.w3.org/1999/xlink" width="56.69" height="399" viewBox="0 0 56.69 399"><svg viewBox="0 0 56.69 56.69" width="56.69" height="56.69" id="cycle" y="0"><path d="M4.7 32.33A10.65 10.65 0 0 1 12.58 29a10.84 10.84 0 0 1 7.94 3.38 10.9 10.9 0 0 1 3.37 8 10.7 10.7 0 0 1-3.37 7.9 10.94 10.94 0 0 1-7.94 3.32 10.74 10.74 0 0 1-7.88-3.4 10.79 10.79 0 0 1-3.31-7.9 11 11 0 0 1 3.31-7.97zM7 45.85a7.53 7.53 0 0 0 5.54 2.29 7.73 7.73 0 0 0 5.6-2.29 7.49 7.49 0 0 0 2.34-5.55 7.69 7.69 0 0 0-2.34-5.62 7.63 7.63 0 0 0-5.6-2.35A7.44 7.44 0 0 0 7 34.68a7.79 7.79 0 0 0-2.24 5.62A7.59 7.59 0 0 0 7 45.85zm27.36-21.37l-3.61-5.43-5.17 5.43 4.69 3.87v13.51h-3.85V31.49l-7.34-4.59c-1.53-1-2.29-2.13-2.29-3.26a3.75 3.75 0 0 1 1.09-2.78l8.66-8.32a3.58 3.58 0 0 1 2.65-1.09 4 4 0 0 1 3.37 1.93l4.09 7.24h7.1v3.86zm1.81 7.85A10.86 10.86 0 0 1 44.11 29 10.69 10.69 0 0 1 52 32.33a11 11 0 0 1 3.31 8 11.32 11.32 0 0 1-11.2 11.22 11 11 0 0 1-7.94-3.32 10.7 10.7 0 0 1-3.37-7.9 10.9 10.9 0 0 1 3.37-8zm4-20.22a3.81 3.81 0 0 1-2.83 1.15 4 4 0 0 1-2.89-1.15 3.74 3.74 0 0 1-1.2-2.83 4.11 4.11 0 0 1 4.09-4.11 3.75 3.75 0 0 1 2.86 1.21 4.09 4.09 0 0 1 1.15 2.9 3.85 3.85 0 0 1-1.15 2.83zm-1.65 33.74a7.71 7.71 0 0 0 5.59 2.29 7.52 7.52 0 0 0 5.54-2.29 7.59 7.59 0 0 0 2.29-5.55 7.8 7.8 0 0 0-2.29-5.62 7.42 7.42 0 0 0-5.54-2.35 8 8 0 0 0-7.94 8 7.46 7.46 0 0 0 2.35 5.52z"></path></svg><svg viewBox="0 0 56.69 56.69" width="56.69" height="56.69" id="hero" y="57"><path d="M28.35 12.68l3.73 11.22.69 2.1h13.89l-9.6 6.72L35.22 34l.72 2.13L39.64 47l-9.54-6.86-1.75-1.25-1.75 1.25L17.05 47l3.7-10.9.73-2.1-1.85-1.29L10 26h13.92l.69-2.05 3.74-11.22m0-9.49L21.76 23H.52l17.39 12.12-6.71 19.76 17.15-12.3 17.14 12.3-6.71-19.76L56.18 23H34.93L28.35 3.19z"></path></svg><svg viewBox="0 0 56.69 56.69" width="56.69" height="56.69" id="minutes" y="114"><path d="M27.39 9.92A21.71 21.71 0 1 1 5.68 31.63 21.55 21.55 0 0 1 27.39 9.92m0-3a24.71 24.71 0 1 0 17.79 7.57 24.71 24.71 0 0 0-17.79-7.57zM49.8 11.7l-2.12-2.12-4 3.95 2.12 2.12zM35.3 1H19.47v3H35.3zm-6.41 14.8h-3v15.83h3z"></path></svg><svg viewBox="0 0 56.69 56.69" width="56.69" height="56.69" id="organizer" y="171"><path d="M49.17 3.12v50.46H10.81V3.12h38.36m1-3H9.82a2 2 0 0 0-2 2v52.44a2 2 0 0 0 2 2h40.33a2 2 0 0 0 2-2V2.13a2 2 0 0 0-2-2zM19.91 9.19a1 1 0 0 0-1-1h-2a1 1 0 0 0-1 1v2a1 1 0 0 0 1 1h2a1 1 0 0 0 1-1zm0 8.07a1 1 0 0 0-1-1h-2a1 1 0 0 0-1 1v2a1 1 0 0 0 1 1h2a1 1 0 0 0 1-1zm0 8.06a1 1 0 0 0-1-1h-2a1 1 0 0 0-1 1v2a1 1 0 0 0 1 1h2a1 1 0 0 0 1-1zm0 8.07a1 1 0 0 0-1-1h-2a1 1 0 0 0-1 1v2a1 1 0 0 0 1 1h2a1 1 0 0 0 1-1zm0 8.06a1 1 0 0 0-1-1h-2a1 1 0 0 0-1 1v2a1 1 0 0 0 1 1h2a1 1 0 0 0 1-1zm4-30.24a1 1 0 0 0 1 1h2a1 1 0 0 0 1-1v-2a1 1 0 0 0-1-1H25a1 1 0 0 0-1 1zm0 8.06a1 1 0 0 0 1 1h2a1 1 0 0 0 1-1v-2a1 1 0 0 0-1-1H25a1 1 0 0 0-1 1zm0 8.07a1 1 0 0 0 1 1h2a1 1 0 0 0 1-1v-2a1 1 0 0 0-1-1H25a1 1 0 0 0-1 1zm0 8.06a1 1 0 0 0 1 1h2a1 1 0 0 0 1-1v-2a1 1 0 0 0-1-1H25a1 1 0 0 0-1 1zM36 46c0-.85-.45-1.51-1-1.51H25c-.57 0-1 .66-1 1.51v9.08c0 .85.44 1.51 1 1.51h10c.57 0 1-.66 1-1.51zm0-36.8a1 1 0 0 0-1-1h-2a1 1 0 0 0-1 1v2a1 1 0 0 0 1 1h2a1 1 0 0 0 1-1zm0 8.07a1 1 0 0 0-1-1h-2a1 1 0 0 0-1 1v2a1 1 0 0 0 1 1h2a1 1 0 0 0 1-1zm0 8.06a1 1 0 0 0-1-1h-2a1 1 0 0 0-1 1v2a1 1 0 0 0 1 1h2a1 1 0 0 0 1-1zm0 8.07a1 1 0 0 0-1-1h-2a1 1 0 0 0-1 1v2a1 1 0 0 0 1 1h2a1 1 0 0 0 1-1zm8.1-24.21a1 1 0 0 0-1-1h-2a1 1 0 0 0-1 1v2a1 1 0 0 0 1 1h2a1 1 0 0 0 1-1zm0 8.07a1 1 0 0 0-1-1h-2a1 1 0 0 0-1 1v2a1 1 0 0 0 1 1h2a1 1 0 0 0 1-1zm0 8.06a1 1 0 0 0-1-1h-2a1 1 0 0 0-1 1v2a1 1 0 0 0 1 1h2a1 1 0 0 0 1-1zm0 8.07a1 1 0 0 0-1-1h-2a1 1 0 0 0-1 1v2a1 1 0 0 0 1 1h2a1 1 0 0 0 1-1zm0 8.06a1 1 0 0 0-1-1h-2a1 1 0 0 0-1 1v2a1 1 0 0 0 1 1h2a1 1 0 0 0 1-1z"></path></svg><svg viewBox="0 0 56.69 56.69" width="56.69" height="56.69" id="run" y="228"><path d="M38.25 21.51l-3 6.63L40 39.6l-1.84 14.24-4.09-.52 1.37-10.68L31 34.39l-3.64 7.5-9.26 7-2.28-3.35L24 39.38l7.54-22.57L26.89 18l-1.14 8.9-4.3-.55L23 13.92l12.48-2.7a6.12 6.12 0 0 1 1.41.06A3.91 3.91 0 0 1 40 13.71L43.87 22l7.74 1-.61 4.45L39.86 26zm3.31-8.84a4.14 4.14 0 0 0 3.19-.95 4.39 4.39 0 0 0 1.68-3 4.32 4.32 0 0 0-.89-3.28 4.09 4.09 0 0 0-6-.77 4.34 4.34 0 0 0-1.69 3 4.42 4.42 0 0 0 .87 3.33 4.13 4.13 0 0 0 2.84 1.67zm-23 6.44H4.25l-.08 1.94h14.16zm-.66 4.83H7.11L7 25.88h10.7zm1.28-9.56H6.13L6 16.31h13z"></path></svg><svg viewBox="0 0 56.69 56.69" width="56.69" height="56.69" id="tjamp" y="285"><path class="cls-1" d="M15.64 39.67a1.5 1.5 0 0 1-.44-2.93 13 13 0 0 0 3.06-1.68 45.6 45.6 0 0 1 7.88-4.27c7.23-3.07 12.29.21 12.5.35a1.5 1.5 0 0 1-1.64 2.5c-.17-.1-4-2.5-9.68-.09a43.1 43.1 0 0 0-7.41 4 14.82 14.82 0 0 1-3.82 2 1.31 1.31 0 0 1-.45.12z"></path><path class="cls-1" d="M15.64 39.67a1.5 1.5 0 0 1-1.19-2.41c1.36-1.78 4.66-7.14 3.6-10.54a16.25 16.25 0 0 1 .49-10.48 1.5 1.5 0 1 1 2.75 1.19 13.46 13.46 0 0 0-.38 8.39c1.75 5.59-3.84 13-4.08 13.26a1.48 1.48 0 0 1-1.19.59z"></path><path class="cls-1" d="M29.44 54a36.23 36.23 0 0 1-7.75-.74C10.77 50.77 2.31 48.56 1 44.55-.16 41.16-.21 37.6.82 33c1.23-5.54 3.88-15.53 7.7-20.25C13 7.23 16.09 3.83 18.59 2.82a5.92 5.92 0 0 1 5.6.23l.9.42.51.24a17.1 17.1 0 0 1 4.85 3.06l1.07.87a5.55 5.55 0 0 1 2.29 3.71 3.87 3.87 0 0 1-.76 2.65l-3.66 5a7 7 0 0 1-4.76 1.87h-5.46a1.5 1.5 0 0 1 0-3h5.46a4 4 0 0 0 2.62-1l3.47-4.79c.11-.16.47-.91-1.09-2.17l-1.07-.81a14.22 14.22 0 0 0-4.24-2.67l-.51-.24-.87-.41c-1.47-.67-1.84-.78-3.22-.18-2.27.92-6.56 6.21-8.87 9.05-3.57 4.4-6.16 14.76-7.1 19-.91 4-.88 7.1.07 10S16.63 49 22.35 50.32C30.59 52.19 44 49.77 48.5 48a6.86 6.86 0 0 0 4.08-5.32c.06-1.5.4-9.45.26-13.71a4.5 4.5 0 0 0-1.37-3.39c-1.31-1.19-3.71-1.71-6.93-1.5-5.15.34-8.43 6.63-8.46 6.69a1.5 1.5 0 1 1-2.67-1.37c.16-.32 4.1-7.87 10.94-8.31 4.11-.26 7.19.49 9.14 2.26a7.45 7.45 0 0 1 2.34 5.52c.16 4.53-.22 13-.26 14V43a9.86 9.86 0 0 1-6 7.81C45.9 52.22 37.3 54 29.44 54z"></path></svg><svg viewBox="0 0 56.69 56.69" width="56.69" height="56.69" id="walk" y="342"><path d="M31.82 25.65l-2.17-4.26-2.17 7 6.18 10.76v14.32h-4.12V42.7l-5.42-7.62-6.18 18.39H13.6l8.78-35.89-4.44 1.79v9H13.6V15.79l12-4.27a6.43 6.43 0 0 1 1.4-.11 3.88 3.88 0 0 1 3.37 2l4.88 7.74h7.8v4.48zm3-14.8a4.09 4.09 0 0 1-6.07 0 4.44 4.44 0 0 1 0-6.28 4.09 4.09 0 0 1 6.07 0 4.44 4.44 0 0 1 0 6.28z"></path></svg></svg>