<svg xmlns="http://www.w3.org/2000/svg" xmlns:xlink="http://www.w3.org/1999/xlink" width="0" height="0" style="position:absolute">
	
		<symbol id="cycle" viewBox="0 0 32 32">
			<path d="M2 18.36a6.35 6.35 0 0 1 4.68-2 6.48 6.48 0 0 1 4.72 2 6.51 6.51 0 0 1 2 4.73 6.35 6.35 0 0 1-2 4.69 6.49 6.49 0 0 1-4.72 2 6.36 6.36 0 0 1-4.68-2 6.39 6.39 0 0 1-2-4.69 6.55 6.55 0 0 1 2-4.73zm1.4 8a4.49 4.49 0 0 0 3.28 1.36A4.59 4.59 0 0 0 10 26.39a4.45 4.45 0 0 0 1.4-3.3 4.55 4.55 0 0 0-1.4-3.33 4.51 4.51 0 0 0-3.32-1.4 4.41 4.41 0 0 0-3.28 1.4A4.59 4.59 0 0 0 2 23.09a4.49 4.49 0 0 0 1.36 3.3zm16.17-12.65l-2.14-3.23-3.07 3.23L17.14 16v8h-2.28v-6.14l-4.36-2.72a2.5 2.5 0 0 1-1.36-1.93 2.24 2.24 0 0 1 .65-1.65l5.14-4.94A2.14 2.14 0 0 1 16.5 6a2.33 2.33 0 0 1 2 1.15l2.43 4.3h4.21v2.29zm1.07 4.65a6.48 6.48 0 0 1 4.72-2 6.35 6.35 0 0 1 4.68 2 6.55 6.55 0 0 1 2 4.73 6.71 6.71 0 0 1-6.64 6.66 6.49 6.49 0 0 1-4.72-2 6.35 6.35 0 0 1-2-4.69 6.51 6.51 0 0 1 1.96-4.7zm2.4-12a2.32 2.32 0 0 1-1.68.68 2.43 2.43 0 0 1-1.72-.68 2.27 2.27 0 0 1-.71-1.69 2.42 2.42 0 0 1 2.43-2.43A2.27 2.27 0 0 1 23 3a2.43 2.43 0 0 1 .67 1.72A2.32 2.32 0 0 1 23 6.37zm-1 20a4.59 4.59 0 0 0 3.32 1.36A4.64 4.64 0 0 0 30 23.09a4.59 4.59 0 0 0-1.36-3.33 4.41 4.41 0 0 0-3.28-1.4 4.78 4.78 0 0 0-4.72 4.73 4.45 4.45 0 0 0 1.36 3.3z"></path>
		</symbol>
	
		<symbol id="facebook" viewBox="0 0 32 32">
			<path d="M18.67 10.67H24L23.33 16h-4.66v16h-6.92V16H8v-5.33h3.75V7.08a7.28 7.28 0 0 1 1.75-5.29Q15.26 0 19.33 0H24v5.33h-2.83a2.92 2.92 0 0 0-2.05.5 2.49 2.49 0 0 0-.45 1.67z"></path>
		</symbol>
	
		<symbol id="hero" viewBox="0 0 32 32">
			<path d="M16 6.6l2.15 6.45.39 1.18h8L21 18.09l-1 .74.42 1.22 2.13 6.27L17 22.38l-1-.72-1 .72-5.5 3.94 2.13-6.27.42-1.22-1.05-.74-5.53-3.86h8l.39-1.18L16 6.6m0-5.46L12.21 12.5H0l10 7-3.86 11.36L16 23.79l9.86 7.07L22 19.5l10-7H19.79L16 1.14z"></path>
		</symbol>
	
		<symbol id="instagram" viewBox="0 0 32 32">
			<path d="M9.42 9.42a8.66 8.66 0 0 0-2.34 3.91H0V4a3.67 3.67 0 0 1 1.17-2.83A4.33 4.33 0 0 1 4.08 0h24a3.74 3.74 0 0 1 2.75 1.17A3.83 3.83 0 0 1 32 4v9.33h-7a8.73 8.73 0 0 0-2.33-3.91A9.07 9.07 0 0 0 16 6.67a8.94 8.94 0 0 0-6.58 2.75zm13.25 13.16A9 9 0 0 0 25.33 16H32v12a4.23 4.23 0 0 1-1.17 2.83A3.58 3.58 0 0 1 28.08 32h-24a3.85 3.85 0 0 1-2.83-1.17A3.9 3.9 0 0 1 0 28V16h6.75a8.92 8.92 0 0 0 2.67 6.58A8.94 8.94 0 0 0 16 25.33a9.07 9.07 0 0 0 6.67-2.75zm-6.67.09q-6.66 0-6.67-6.67T16 9.33q6.66 0 6.67 6.67T16 22.67zM29.33 7V3.75A1 1 0 0 0 29 3a1 1 0 0 0-.75-.33h-3.17a1.07 1.07 0 0 0-.75.33 1 1 0 0 0-.33.75V7a1 1 0 0 0 .33.75 1 1 0 0 0 .75.25h3.17a1 1 0 0 0 .75-.25 1 1 0 0 0 .33-.75z"></path>
		</symbol>
	
		<symbol id="minutes" viewBox="0 0 32 32">
			<path d="M16 5.2A12.51 12.51 0 1 1 3.49 17.71 12.41 12.41 0 0 1 16 5.2m0-1.73a14.25 14.25 0 1 0 10.25 4.36A14.25 14.25 0 0 0 16 3.47zm12.91 2.75L27.69 5l-2.27 2.28 1.22 1.22zM20.56.06h-9.12v1.73h9.12zm-3.7 8.53h-1.72v9.12h1.72z"></path>
		</symbol>
	
		<symbol id="organizer" viewBox="0 0 32 32">
			<path d="M26.8 1.8v28.4H5.2V1.8h21.6m.55-1.69H4.65a1.14 1.14 0 0 0-1.14 1.13v29.52a1.14 1.14 0 0 0 1.14 1.13h22.7a1.14 1.14 0 0 0 1.14-1.13V1.24A1.14 1.14 0 0 0 27.35.11zm-17 5.11a.56.56 0 0 0-.56-.57H8.62a.56.56 0 0 0-.57.57v1.13a.56.56 0 0 0 .57.57h1.14a.56.56 0 0 0 .56-.57zm0 4.54a.56.56 0 0 0-.56-.57H8.62a.56.56 0 0 0-.57.57v1.13a.56.56 0 0 0 .57.57h1.14a.56.56 0 0 0 .56-.57zm0 4.54a.56.56 0 0 0-.56-.57H8.62a.56.56 0 0 0-.57.57v1.13a.56.56 0 0 0 .57.57h1.14a.56.56 0 0 0 .56-.57zm0 4.54a.56.56 0 0 0-.56-.57H8.62a.56.56 0 0 0-.57.57V20a.56.56 0 0 0 .57.57h1.14a.56.56 0 0 0 .56-.57zm0 4.54a.56.56 0 0 0-.56-.57H8.62a.56.56 0 0 0-.57.57v1.13a.56.56 0 0 0 .57.57h1.14a.56.56 0 0 0 .56-.57zm2.27-17a.56.56 0 0 0 .57.57h1.11a.56.56 0 0 0 .56-.57V5.22a.56.56 0 0 0-.56-.57h-1.14a.56.56 0 0 0-.57.57zm0 4.54a.56.56 0 0 0 .57.57h1.11a.56.56 0 0 0 .56-.57V9.76a.56.56 0 0 0-.56-.57h-1.14a.56.56 0 0 0-.57.57zm0 4.54a.56.56 0 0 0 .57.57h1.11a.56.56 0 0 0 .56-.57V14.3a.56.56 0 0 0-.56-.57h-1.14a.56.56 0 0 0-.57.57zm0 4.54a.56.56 0 0 0 .57.57h1.11a.56.56 0 0 0 .56-.57v-1.16a.56.56 0 0 0-.56-.57h-1.14a.56.56 0 0 0-.57.57zm6.82 6c0-.48-.25-.85-.57-.85h-5.71c-.32 0-.57.37-.57.85v5c0 .48.25.85.57.85h5.68c.32 0 .57-.37.57-.85zm0-20.71a.56.56 0 0 0-.57-.57H17.7a.56.56 0 0 0-.57.57v1.06a.56.56 0 0 0 .57.57h1.14a.56.56 0 0 0 .57-.57zm0 4.54a.56.56 0 0 0-.57-.57H17.7a.56.56 0 0 0-.57.57v1.13a.56.56 0 0 0 .57.57h1.14a.56.56 0 0 0 .57-.57zm0 4.54a.56.56 0 0 0-.57-.57H17.7a.56.56 0 0 0-.57.57v1.13a.56.56 0 0 0 .57.57h1.14a.56.56 0 0 0 .57-.57zm0 4.54a.56.56 0 0 0-.57-.57H17.7a.56.56 0 0 0-.57.57V20a.56.56 0 0 0 .57.57h1.14a.56.56 0 0 0 .57-.57zM24 5.22a.56.56 0 0 0-.57-.57h-1.19a.56.56 0 0 0-.56.57v1.13a.56.56 0 0 0 .56.57h1.14a.56.56 0 0 0 .62-.57zm0 4.54a.56.56 0 0 0-.57-.57h-1.19a.56.56 0 0 0-.56.57v1.13a.56.56 0 0 0 .56.57h1.14a.56.56 0 0 0 .57-.57zm0 4.54a.56.56 0 0 0-.57-.57h-1.19a.56.56 0 0 0-.56.57v1.13a.56.56 0 0 0 .56.57h1.14a.56.56 0 0 0 .57-.57zm0 4.54a.56.56 0 0 0-.57-.57h-1.19a.56.56 0 0 0-.56.57V20a.56.56 0 0 0 .56.57h1.14A.56.56 0 0 0 24 20zm0 4.54a.56.56 0 0 0-.57-.57h-1.19a.56.56 0 0 0-.56.57v1.13a.56.56 0 0 0 .56.57h1.14a.56.56 0 0 0 .57-.57z"></path>
		</symbol>
	
		<symbol id="run" viewBox="0 0 32 32">
			<path d="M22.57 11.39l-1.93 4.2 3 7.26-1.15 9-2.59-.33.86-6.77-2.76-5.2-2.31 4.76-5.88 4.46-1.44-2.12 5.15-3.94 4.78-14.3-2.94.77-.72 5.64-2.72-.35 1-7.89 7.91-1.72a3.81 3.81 0 0 1 .89 0 2.46 2.46 0 0 1 1.95 1.54l2.45 5.25 4.91.63-.36 2.82-7.09-.91zm2.1-5.61a2.53 2.53 0 0 0 2-.6 2.74 2.74 0 0 0 1.07-1.87 2.78 2.78 0 0 0-.56-2.08 2.6 2.6 0 0 0-3.81-.49 2.8 2.8 0 0 0-1.07 1.87 2.76 2.76 0 0 0 .57 2.08 2.55 2.55 0 0 0 1.8 1.09zM10.11 9.87H1v1.23h9zm-.42 3.06H2.83l-.08 1.22h6.78zm.81-6.06H2.21l-.09 1.22h8.2z"></path>
		</symbol>
	
		<symbol id="tjamp" viewBox="0 0 32 32">
			<path class="cls-1" d="M10 22.2a.85.85 0 0 1-.24-1.67 3 3 0 0 0 1.06-.84 8.21 8.21 0 0 1 4.84-2.63c2.87-.53 5.78 1.29 5.9 1.37a.85.85 0 0 1 .26 1.17.84.84 0 0 1-1.17.26A7.8 7.8 0 0 0 16 18.73a6.52 6.52 0 0 0-4 2.16 4.24 4.24 0 0 1-1.78 1.27.69.69 0 0 1-.22.04z"></path><path class="cls-1" d="M10 22.2a.94.94 0 0 1-.42-.11.85.85 0 0 1-.31-1.16s1.86-3.32 1.1-5.73a9.31 9.31 0 0 1 .28-6 .85.85 0 0 1 1.12-.44.84.84 0 0 1 .44 1.11A7.8 7.8 0 0 0 12 14.7c1 3.12-1.16 6.91-1.25 7.07a.85.85 0 0 1-.75.43z"></path><path class="cls-1" d="M16.86 30.79a19.88 19.88 0 0 1-4.43-.43C6.19 29 1.35 27.68.59 25.4a11.89 11.89 0 0 1-.09-6.6c.71-3.16 2.22-8.88 4.4-11.57 2.57-3.16 4.33-5.1 5.76-5.68a3.36 3.36 0 0 1 3.19.13l.51.24.3.14a9.89 9.89 0 0 1 2.77 1.75l.61.5a3.12 3.12 0 0 1 1.31 2.11 2.24 2.24 0 0 1-.43 1.52l-2.1 2.87a4 4 0 0 1-2.71 1.07H11a.85.85 0 0 1 0-1.7h3.12a2.3 2.3 0 0 0 1.5-.56l2-2.74c.07-.1.27-.53-.62-1.25l-.61-.5a8.36 8.36 0 0 0-2.46-1.53l-.29-.14-.49-.23a1.77 1.77 0 0 0-1.85-.1C10 3.65 7.54 6.68 6.23 8.3c-2 2.52-3.53 8.44-4.07 10.87a10.35 10.35 0 0 0 0 5.69c.52 1.56 7.33 3.1 10.6 3.84 4.72 1.07 12.35-.31 15-1.32a3.92 3.92 0 0 0 2.34-3.07l.07-.6c.06-1.35.06-4.9.06-6.76V16a1.91 1.91 0 0 0-.36-1.37c-.46-.45-1.73-.41-3.21-.36h-1.24c-2.29 0-4.68 3.2-5.41 4.41a.84.84 0 0 1-1.16.3.85.85 0 0 1-.3-1.17c.13-.21 3.15-5.18 6.84-5.24h1.21c1.94-.06 3.48-.11 4.45.83a3.44 3.44 0 0 1 .88 2.6v1c0 5.39 0 7-.15 7.66A5.61 5.61 0 0 1 28.37 29a37.65 37.65 0 0 1-11.51 1.79z"></path>
		</symbol>
	
		<symbol id="walk" viewBox="0 0 32 32">
			<path d="M18.18 14.31l-1.36-2.67L15.46 16l3.87 6.75v9h-2.58V25l-3.4-4.79-3.88 11.55H6.75l5.51-22.51-2.79 1.12V16H6.75V8.12l7.55-2.67a3.74 3.74 0 0 1 .88-.07 2.44 2.44 0 0 1 2.11 1.26l3.06 4.86h4.9v2.81zM20.08 5a2.56 2.56 0 0 1-3.81 0 2.75 2.75 0 0 1-.81-2 2.77 2.77 0 0 1 .81-2 2.58 2.58 0 0 1 3.81 0 2.74 2.74 0 0 1 .82 2 2.72 2.72 0 0 1-.82 2z"></path>
		</symbol>
	
</svg>
