<svg xmlns="http://www.w3.org/2000/svg" xmlns:xlink="http://www.w3.org/1999/xlink" width="0" height="0" style="position:absolute">
	
		<symbol id="android" viewBox="0 0 32 32">
			<path d="M1.92 9.92a1.93 1.93 0 0 1 1.41-.59 1.93 1.93 0 0 1 1.42.59 1.92 1.92 0 0 1 .58 1.41v8a1.92 1.92 0 0 1-.58 1.42 1.92 1.92 0 0 1-1.42.58 2 2 0 0 1-2-2v-8a1.93 1.93 0 0 1 .59-1.41zm18.66-7.84a7.12 7.12 0 0 1 3 2.46A9.75 9.75 0 0 1 25 7.25a11.7 11.7 0 0 1 .37 2.08H6.67Q7 4 11.33 2.08L9.83.25a.24.24 0 0 1 .09-.17l.25-.08 1.58 1.92A12.48 12.48 0 0 1 16 1.17a12.25 12.25 0 0 1 4.17.75L21.83 0a.27.27 0 0 1 .17.08l.17.17zM6.67 17v-6.33h18.66V24.5c0 .78-.3 1.17-.91 1.17h-2.34V30a2 2 0 0 1-2 2H20a2 2 0 0 1-1.17-.42 1.89 1.89 0 0 1-.75-1.58v-4.33H14V30a2 2 0 0 1-3.42 1.42A1.92 1.92 0 0 1 10 30v-4.33H7.58c-.61 0-.91-.39-.91-1.17zm5.25-10.75A1 1 0 0 0 13 5.17a1.18 1.18 0 0 0-.33-.79 1 1 0 0 0-.75-.38 1.09 1.09 0 0 0-.84.38 1.18 1.18 0 0 0-.33.79 1 1 0 0 0 .38.75 1.18 1.18 0 0 0 .79.33zm8.16 0a1.2 1.2 0 0 0 .8-.33 1 1 0 0 0 .37-.75 1.1 1.1 0 0 0-.37-.79 1.14 1.14 0 0 0-.8-.38Q19 4 19 5.17a1 1 0 0 0 1.08 1.08zm7.17 3.67a2 2 0 0 1 3.42 1.41v8a2 2 0 1 1-4 0v-8a1.92 1.92 0 0 1 .58-1.41z"></path>
		</symbol>
	
		<symbol id="apple" viewBox="0 0 32 32">
			<path d="M22.53 7.5a7.3 7.3 0 0 1 5.91 3.25 6.63 6.63 0 0 0-3.25 4.08 7.22 7.22 0 0 0 .42 5.17 6.65 6.65 0 0 0 3.75 3.5 24.87 24.87 0 0 1-2 3.83q-3 4.67-5.42 4.67h-.08a6.06 6.06 0 0 1-2.38-.67 6.92 6.92 0 0 0-2.87-.66 7.11 7.11 0 0 0-3 .66 6 6 0 0 1-2.37.67h-.09q-2.45 0-5.29-4.42a19.24 19.24 0 0 1-3.08-8.83q-.42-4.66 1.33-7.25c1.67-2.67 3.83-4 6.5-4a9.58 9.58 0 0 1 3.12.67 9.44 9.44 0 0 0 2.8.66 9.07 9.07 0 0 0 2.66-.66 9.75 9.75 0 0 1 3.34-.67zM21.86 0a7.09 7.09 0 0 1-1.5 5.17 5.73 5.73 0 0 1-4.67 2.5h-.08a6.45 6.45 0 0 1 1.5-5A6.65 6.65 0 0 1 21.86 0z"></path>
		</symbol>
	
		<symbol id="arrow-down" viewBox="0 0 32 32">
			<path d="M27.64 22.09l-9.55 9.09A2.8 2.8 0 0 1 16 32a2.71 2.71 0 0 1-2-.82l-9.64-9.09a2.76 2.76 0 0 1 0-3.91 2.87 2.87 0 0 1 2.09-.82 2.88 2.88 0 0 1 2.1.82l4.54 4.37V2.82a2.66 2.66 0 0 1 .86-2 3 3 0 0 1 4.1 0 2.66 2.66 0 0 1 .86 2v19.73l4.54-4.46a3.09 3.09 0 0 1 4.19 0 2.87 2.87 0 0 1 0 4z"></path>
		</symbol>
	
		<symbol id="arrow-left" viewBox="0 0 32 32">
			<path d="M9.91 27.64L.82 18.09A2.8 2.8 0 0 1 0 16a2.71 2.71 0 0 1 .82-2l9.09-9.64a2.76 2.76 0 0 1 3.91 0 2.87 2.87 0 0 1 .82 2.09 2.88 2.88 0 0 1-.82 2.1l-4.37 4.54h19.73a2.66 2.66 0 0 1 2 .86 3 3 0 0 1 0 4.1 2.66 2.66 0 0 1-2 .86H9.45l4.46 4.54a3.09 3.09 0 0 1 0 4.19 2.87 2.87 0 0 1-4 0z"></path>
		</symbol>
	
		<symbol id="arrow-right" viewBox="0 0 32 32">
			<path d="M22.09 4.36l9.09 9.55A2.8 2.8 0 0 1 32 16a2.71 2.71 0 0 1-.82 2l-9.09 9.64a2.76 2.76 0 0 1-3.91 0 3.09 3.09 0 0 1 0-4.19l4.37-4.54H2.82a2.66 2.66 0 0 1-2-.86 3 3 0 0 1 0-4.1 2.66 2.66 0 0 1 2-.86h19.73l-4.46-4.54a2.88 2.88 0 0 1-.82-2.1 2.87 2.87 0 0 1 .82-2.09 2.87 2.87 0 0 1 4 0z"></path><path d="M22.09 4.36l9.09 9.55A2.8 2.8 0 0 1 32 16a2.71 2.71 0 0 1-.82 2l-9.09 9.64a2.76 2.76 0 0 1-3.91 0 3.09 3.09 0 0 1 0-4.19l4.37-4.54H2.82a2.66 2.66 0 0 1-2-.86 3 3 0 0 1 0-4.1 2.66 2.66 0 0 1 2-.86h19.73l-4.46-4.54a2.88 2.88 0 0 1-.82-2.1 2.87 2.87 0 0 1 .82-2.09 2.87 2.87 0 0 1 4 0z"></path>
		</symbol>
	
		<symbol id="arrow-up" viewBox="0 0 32 32">
			<path d="M4.36 9.91L13.91.82A2.8 2.8 0 0 1 16 0a2.71 2.71 0 0 1 2 .82l9.64 9.09a2.76 2.76 0 0 1 0 3.91 3.09 3.09 0 0 1-4.19 0l-4.54-4.37v19.73a2.66 2.66 0 0 1-.86 2 3 3 0 0 1-4.1 0 2.66 2.66 0 0 1-.86-2V9.45l-4.54 4.46a2.88 2.88 0 0 1-2.1.82 2.87 2.87 0 0 1-2.09-.82 2.87 2.87 0 0 1 0-4z"></path>
		</symbol>
	
		<symbol id="calendar" viewBox="0 0 32 32">
			<path d="M31.35 2.36a.5.5 0 0 1 .57.57v28.42a.5.5 0 0 1-.57.57H.65a.5.5 0 0 1-.57-.57V2.93a.5.5 0 0 1 .57-.57h4v2.91a2.4 2.4 0 0 0 1 2A3.7 3.7 0 0 0 8 8a3.68 3.68 0 0 0 2.38-.82 2.4 2.4 0 0 0 1-1.95V2.36h9.1v2.91a2.38 2.38 0 0 0 1.06 2A3.85 3.85 0 0 0 24 8a3.61 3.61 0 0 0 2.31-.82 2.4 2.4 0 0 0 1-1.95V2.36zm-2.84 26.15V10.32h-25v18.19zM9.68 6.26A2.22 2.22 0 0 1 8 6.9a2.19 2.19 0 0 1-2.23-2.27V2.36A2.21 2.21 0 0 1 6.41.72 2.22 2.22 0 0 1 8 .08a2.26 2.26 0 0 1 1.68.64 2.25 2.25 0 0 1 .64 1.64v2.27a2.22 2.22 0 0 1-.64 1.63zm15.91 0A2.18 2.18 0 0 1 24 6.9a2.19 2.19 0 0 1-2.28-2.27V2.36a2.25 2.25 0 0 1 .6-1.64A2.26 2.26 0 0 1 24 .08a2.22 2.22 0 0 1 1.63.64 2.21 2.21 0 0 1 .64 1.64v2.27a2.18 2.18 0 0 1-.68 1.63z"></path>
		</symbol>
	
		<symbol id="camera" viewBox="0 0 32 32">
			<path d="M29.38 7.62a2.57 2.57 0 0 1 1.85.73 2.39 2.39 0 0 1 .77 1.8v15.54a2.63 2.63 0 0 1-2.62 2.62H2.62a2.53 2.53 0 0 1-1.85-.77A2.53 2.53 0 0 1 0 25.69V10.15a2.39 2.39 0 0 1 .77-1.8 2.57 2.57 0 0 1 1.85-.73h5.3l3-3.08a2.35 2.35 0 0 1 1.93-.85h6.46a2.47 2.47 0 0 1 1.77.77l3.15 3.16zM11 22.35a6.74 6.74 0 0 0 5 2.11 6.74 6.74 0 0 0 5-2.11 7.15 7.15 0 0 0 0-10.08 6.75 6.75 0 0 0-5-2.12 6.75 6.75 0 0 0-5 2.12 7.15 7.15 0 0 0 0 10.08zm1.19-8.85a5.38 5.38 0 0 1 7.62 0 5.41 5.41 0 0 1 0 7.62A5.19 5.19 0 0 1 16 22.69a5.36 5.36 0 0 1-5.38-5.38 5.19 5.19 0 0 1 1.57-3.81zm15.66-2.88a1.08 1.08 0 0 0 2.15 0 1.08 1.08 0 1 0-2.15 0z"></path>
		</symbol>
	
		<symbol id="checkmark" viewBox="0 0 32 32">
			<path d="M31.85 4.77a1.18 1.18 0 0 1 .15.46 1.18 1.18 0 0 1-.15.46L12.69 30.31c-.31.31-.54.46-.69.46a1.1 1.1 0 0 1-.77-.39L.38 19.92l-.23-.23a1.18 1.18 0 0 1-.15-.46 1.32 1.32 0 0 1 .15-.38l.16-.16q2.15-2.31 3.38-3.54c.31-.3.52-.46.62-.46a1.32 1.32 0 0 1 .77.46l6.15 6L26.62 1.38a.62.62 0 0 1 .46-.15 1.3 1.3 0 0 1 .54.15z"></path>
		</symbol>
	
		<symbol id="close" viewBox="0 0 32 32">
			<path d="M31.59 26.86a1.21 1.21 0 0 1 0 1.66l-3.15 3.07a1.05 1.05 0 0 1-.75.33 1.13 1.13 0 0 1-.83-.33L16 20.73 5.14 31.59a1 1 0 0 1-.75.33 1.15 1.15 0 0 1-.83-.33L.41 28.52a1.21 1.21 0 0 1 0-1.66L11.36 16 .41 5.22a1 1 0 0 1 0-1.66L3.48.41a1.62 1.62 0 0 1 .83-.33 1.13 1.13 0 0 1 .83.33L16 11.19 26.86.41a1.62 1.62 0 0 1 .83-.33 1.13 1.13 0 0 1 .83.33l3.07 3.15a1 1 0 0 1 0 1.58L20.64 15.92z"></path>
		</symbol>
	
		<symbol id="cycle" viewBox="0 0 32 32">
			<path d="M2 18.36a6.35 6.35 0 0 1 4.68-2 6.48 6.48 0 0 1 4.72 2 6.51 6.51 0 0 1 2 4.73 6.35 6.35 0 0 1-2 4.69 6.49 6.49 0 0 1-4.72 2 6.36 6.36 0 0 1-4.68-2 6.39 6.39 0 0 1-2-4.69 6.55 6.55 0 0 1 2-4.73zm1.4 8a4.49 4.49 0 0 0 3.28 1.36A4.59 4.59 0 0 0 10 26.39a4.45 4.45 0 0 0 1.4-3.3 4.55 4.55 0 0 0-1.4-3.33 4.51 4.51 0 0 0-3.32-1.4 4.41 4.41 0 0 0-3.28 1.4A4.59 4.59 0 0 0 2 23.09a4.49 4.49 0 0 0 1.36 3.3zm16.17-12.65l-2.14-3.23-3.07 3.23L17.14 16v8h-2.28v-6.14l-4.36-2.72a2.5 2.5 0 0 1-1.36-1.93 2.24 2.24 0 0 1 .65-1.65l5.14-4.94A2.14 2.14 0 0 1 16.5 6a2.33 2.33 0 0 1 2 1.15l2.43 4.3h4.21v2.29zm1.07 4.65a6.48 6.48 0 0 1 4.72-2 6.35 6.35 0 0 1 4.68 2 6.55 6.55 0 0 1 2 4.73 6.71 6.71 0 0 1-6.64 6.66 6.49 6.49 0 0 1-4.72-2 6.35 6.35 0 0 1-2-4.69 6.51 6.51 0 0 1 1.96-4.7zm2.4-12a2.32 2.32 0 0 1-1.68.68 2.43 2.43 0 0 1-1.72-.68 2.27 2.27 0 0 1-.71-1.69 2.42 2.42 0 0 1 2.43-2.43A2.27 2.27 0 0 1 23 3a2.43 2.43 0 0 1 .67 1.72A2.32 2.32 0 0 1 23 6.37zm-1 20a4.59 4.59 0 0 0 3.32 1.36A4.64 4.64 0 0 0 30 23.09a4.59 4.59 0 0 0-1.36-3.33 4.41 4.41 0 0 0-3.28-1.4 4.78 4.78 0 0 0-4.72 4.73 4.45 4.45 0 0 0 1.36 3.3z"></path>
		</symbol>
	
		<symbol id="edit" viewBox="0 0 32 32">
			<path d="M2.28 23.65l6.07 6.07L0 32zm24.9-12.41L9.35 29.15l-6.5-6.5L20.76 4.82zM31.39 4A2 2 0 0 1 32 5.6a2.43 2.43 0 0 1-.75 1.64L28 10.45 21.55 4 24.76.75A2.43 2.43 0 0 1 26.4 0a2 2 0 0 1 1.6.61z"></path>
		</symbol>
	
		<symbol id="facebook" viewBox="0 0 32 32">
			<path d="M18.67 10.67H24L23.33 16h-4.66v16h-6.92V16H8v-5.33h3.75V7.08a7.28 7.28 0 0 1 1.75-5.29Q15.26 0 19.33 0H24v5.33h-2.83a2.92 2.92 0 0 0-2.05.5 2.49 2.49 0 0 0-.45 1.67z"></path>
		</symbol>
	
		<symbol id="hero" viewBox="0 0 32 32">
			<path d="M16 6.6l2.15 6.45.39 1.18h8L21 18.09l-1 .74.42 1.22 2.13 6.27L17 22.38l-1-.72-1 .72-5.5 3.94 2.13-6.27.42-1.22-1.05-.74-5.53-3.86h8l.39-1.18L16 6.6m0-5.46L12.21 12.5H0l10 7-3.86 11.36L16 23.79l9.86 7.07L22 19.5l10-7H19.79L16 1.14z"></path>
		</symbol>
	
		<symbol id="info" viewBox="0 0 32 32">
			<path d="M18.46 30.77h2.46V32h-9.84v-1.23h2.46V12.31h-2.46v-1.23h7.38zm.16-24.46a3.74 3.74 0 0 1-5.24 0 3.59 3.59 0 0 1-1.07-2.62 3.57 3.57 0 0 1 1.07-2.61 3.72 3.72 0 0 1 5.24 0 3.57 3.57 0 0 1 1.07 2.61 3.59 3.59 0 0 1-1.07 2.62z"></path>
		</symbol>
	
		<symbol id="instagram" viewBox="0 0 32 32">
			<path d="M9.42 9.42a8.66 8.66 0 0 0-2.34 3.91H0V4a3.67 3.67 0 0 1 1.17-2.83A4.33 4.33 0 0 1 4.08 0h24a3.74 3.74 0 0 1 2.75 1.17A3.83 3.83 0 0 1 32 4v9.33h-7a8.73 8.73 0 0 0-2.33-3.91A9.07 9.07 0 0 0 16 6.67a8.94 8.94 0 0 0-6.58 2.75zm13.25 13.16A9 9 0 0 0 25.33 16H32v12a4.23 4.23 0 0 1-1.17 2.83A3.58 3.58 0 0 1 28.08 32h-24a3.85 3.85 0 0 1-2.83-1.17A3.9 3.9 0 0 1 0 28V16h6.75a8.92 8.92 0 0 0 2.67 6.58A8.94 8.94 0 0 0 16 25.33a9.07 9.07 0 0 0 6.67-2.75zm-6.67.09q-6.66 0-6.67-6.67T16 9.33q6.66 0 6.67 6.67T16 22.67zM29.33 7V3.75A1 1 0 0 0 29 3a1 1 0 0 0-.75-.33h-3.17a1.07 1.07 0 0 0-.75.33 1 1 0 0 0-.33.75V7a1 1 0 0 0 .33.75 1 1 0 0 0 .75.25h3.17a1 1 0 0 0 .75-.25 1 1 0 0 0 .33-.75z"></path>
		</symbol>
	
		<symbol id="minutes" viewBox="0 0 32 32">
			<path d="M16 5.2A12.51 12.51 0 1 1 3.49 17.71 12.41 12.41 0 0 1 16 5.2m0-1.73a14.25 14.25 0 1 0 10.25 4.36A14.25 14.25 0 0 0 16 3.47zm12.91 2.75L27.69 5l-2.27 2.28 1.22 1.22zM20.56.06h-9.12v1.73h9.12zm-3.7 8.53h-1.72v9.12h1.72z"></path>
		</symbol>
	
		<symbol id="organizer" viewBox="0 0 32 32">
			<path d="M26.8 1.8v28.4H5.2V1.8h21.6m.55-1.69H4.65a1.14 1.14 0 0 0-1.14 1.13v29.52a1.14 1.14 0 0 0 1.14 1.13h22.7a1.14 1.14 0 0 0 1.14-1.13V1.24A1.14 1.14 0 0 0 27.35.11zm-17 5.11a.56.56 0 0 0-.56-.57H8.62a.56.56 0 0 0-.57.57v1.13a.56.56 0 0 0 .57.57h1.14a.56.56 0 0 0 .56-.57zm0 4.54a.56.56 0 0 0-.56-.57H8.62a.56.56 0 0 0-.57.57v1.13a.56.56 0 0 0 .57.57h1.14a.56.56 0 0 0 .56-.57zm0 4.54a.56.56 0 0 0-.56-.57H8.62a.56.56 0 0 0-.57.57v1.13a.56.56 0 0 0 .57.57h1.14a.56.56 0 0 0 .56-.57zm0 4.54a.56.56 0 0 0-.56-.57H8.62a.56.56 0 0 0-.57.57V20a.56.56 0 0 0 .57.57h1.14a.56.56 0 0 0 .56-.57zm0 4.54a.56.56 0 0 0-.56-.57H8.62a.56.56 0 0 0-.57.57v1.13a.56.56 0 0 0 .57.57h1.14a.56.56 0 0 0 .56-.57zm2.27-17a.56.56 0 0 0 .57.57h1.11a.56.56 0 0 0 .56-.57V5.22a.56.56 0 0 0-.56-.57h-1.14a.56.56 0 0 0-.57.57zm0 4.54a.56.56 0 0 0 .57.57h1.11a.56.56 0 0 0 .56-.57V9.76a.56.56 0 0 0-.56-.57h-1.14a.56.56 0 0 0-.57.57zm0 4.54a.56.56 0 0 0 .57.57h1.11a.56.56 0 0 0 .56-.57V14.3a.56.56 0 0 0-.56-.57h-1.14a.56.56 0 0 0-.57.57zm0 4.54a.56.56 0 0 0 .57.57h1.11a.56.56 0 0 0 .56-.57v-1.16a.56.56 0 0 0-.56-.57h-1.14a.56.56 0 0 0-.57.57zm6.82 6c0-.48-.25-.85-.57-.85h-5.71c-.32 0-.57.37-.57.85v5c0 .48.25.85.57.85h5.68c.32 0 .57-.37.57-.85zm0-20.71a.56.56 0 0 0-.57-.57H17.7a.56.56 0 0 0-.57.57v1.06a.56.56 0 0 0 .57.57h1.14a.56.56 0 0 0 .57-.57zm0 4.54a.56.56 0 0 0-.57-.57H17.7a.56.56 0 0 0-.57.57v1.13a.56.56 0 0 0 .57.57h1.14a.56.56 0 0 0 .57-.57zm0 4.54a.56.56 0 0 0-.57-.57H17.7a.56.56 0 0 0-.57.57v1.13a.56.56 0 0 0 .57.57h1.14a.56.56 0 0 0 .57-.57zm0 4.54a.56.56 0 0 0-.57-.57H17.7a.56.56 0 0 0-.57.57V20a.56.56 0 0 0 .57.57h1.14a.56.56 0 0 0 .57-.57zM24 5.22a.56.56 0 0 0-.57-.57h-1.19a.56.56 0 0 0-.56.57v1.13a.56.56 0 0 0 .56.57h1.14a.56.56 0 0 0 .62-.57zm0 4.54a.56.56 0 0 0-.57-.57h-1.19a.56.56 0 0 0-.56.57v1.13a.56.56 0 0 0 .56.57h1.14a.56.56 0 0 0 .57-.57zm0 4.54a.56.56 0 0 0-.57-.57h-1.19a.56.56 0 0 0-.56.57v1.13a.56.56 0 0 0 .56.57h1.14a.56.56 0 0 0 .57-.57zm0 4.54a.56.56 0 0 0-.57-.57h-1.19a.56.56 0 0 0-.56.57V20a.56.56 0 0 0 .56.57h1.14A.56.56 0 0 0 24 20zm0 4.54a.56.56 0 0 0-.57-.57h-1.19a.56.56 0 0 0-.56.57v1.13a.56.56 0 0 0 .56.57h1.14a.56.56 0 0 0 .57-.57z"></path>
		</symbol>
	
		<symbol id="people" viewBox="0 0 32 32">
			<path d="M7.93 19.72a7.08 7.08 0 0 0-1.72 1.36c-.23.52-.4.79-.5.79H0A2.8 2.8 0 0 1 2.14 19s.26-.05.65-.14.71-.19 1-.29.45-.21.5-.36a5.67 5.67 0 0 0 .07-1.14 3.14 3.14 0 0 1-2.29-.5l.29-.86a3.19 3.19 0 0 0 .14-.39 1.46 1.46 0 0 0 .07-.39 19.5 19.5 0 0 0 .07-2 7.11 7.11 0 0 1 .57-3.5 2.93 2.93 0 0 1 2.72-1.28q2.93 0 3.36 2.65a9.67 9.67 0 0 1 .14 1.89v1.53a4.78 4.78 0 0 0 .36 1.72c.19.38.26.59.21.64l-.43.22a6.67 6.67 0 0 1-1.21.28 1.47 1.47 0 0 0-.65.07v.79a.45.45 0 0 0 .36.5 2.48 2.48 0 0 0 .54.14 4.42 4.42 0 0 1 .68.18 1 1 0 0 1 .42.25c.15.24.1.36-.14.36a6.15 6.15 0 0 0-1.5.35H8l-.36.15h.07a.83.83 0 0 0 .22-.15zm14.71.93A5.15 5.15 0 0 1 25 22.47a4.8 4.8 0 0 1 .89 2.83H6.07A4.49 4.49 0 0 1 8 21.37a12.2 12.2 0 0 1 3.5-1.15c1.14-.14 1.76-.45 1.86-.92a11.65 11.65 0 0 0 .07-1.65.48.48 0 0 0-.14-.35 3.24 3.24 0 0 1-.58-1 16.62 16.62 0 0 1-.28-1.72.4.4 0 0 1-.47-.21 2.68 2.68 0 0 1-.28-.75 5.26 5.26 0 0 1-.11-.54c-.19-1.05-.12-1.55.22-1.5a3.21 3.21 0 0 1-.36-1.36 6 6 0 0 1 .21-2.78 3.79 3.79 0 0 1 1.79-2.07 5.18 5.18 0 0 1 5.39.21 3.92 3.92 0 0 1 1.61 2.14 5.84 5.84 0 0 1 .07 2.79 3.38 3.38 0 0 1-.29 1.07.25.25 0 0 1 .33.14 1 1 0 0 1 .07.54c0 .21-.05.4-.07.57a1.32 1.32 0 0 1-.11.39l-.14.5a1.56 1.56 0 0 1-.25.72.43.43 0 0 1-.47.14 6 6 0 0 1-.5 2.22 1 1 0 0 1-.25.35c-.17.19-.25.31-.25.36v.79a3.21 3.21 0 0 0 .14 1.07c.1.23.43.43 1 .57a6.81 6.81 0 0 0 1.47.36 6.11 6.11 0 0 1 1.46.35zm-14.71-.93zM29.79 19A2.82 2.82 0 0 1 32 21.87h-5.71a3.55 3.55 0 0 0-1.15-1.36 5 5 0 0 0-2-1.07h-.35a1.5 1.5 0 0 1-.47-.07c-.12-.05-.15-.15-.11-.29a2 2 0 0 1 .93-.43c.72-.19 1.1-.35 1.15-.5v-1A9.22 9.22 0 0 1 23 17c-.29-.1-.55-.19-.79-.29s-.19-.35 0-.78a16.85 16.85 0 0 0 .36-3.64c.1-2.1.74-3.39 1.93-3.86a3.77 3.77 0 0 1 3.43.21 3.37 3.37 0 0 1 1.43 3.15v2.28a4.75 4.75 0 0 0 .14 1.07 3 3 0 0 0 .43 1.07c.14.24.14.38 0 .43a.29.29 0 0 1-.22.07.29.29 0 0 0-.21.08l-.86.21a4.13 4.13 0 0 1-.93.07 5 5 0 0 0 .07 1.22 1.72 1.72 0 0 0 .58.35 3.48 3.48 0 0 0 .82.22 3.72 3.72 0 0 1 .61.14z"></path>
		</symbol>
	
		<symbol id="prize" viewBox="0 0 32 32">
			<path d="M8.26 15.86A9.75 9.75 0 0 0 16 19.39a9.33 9.33 0 0 0 2.41-.28L16 24.34l-3.39 7.48-3.43-5.65H2.4zm1.31-13A8.71 8.71 0 0 1 16 .18a8.71 8.71 0 0 1 6.4 2.65A8.71 8.71 0 0 1 25 9.22a8.73 8.73 0 0 1-2.65 6.39A8.71 8.71 0 0 1 16 18.26a8.71 8.71 0 0 1-6.39-2.65 8.73 8.73 0 0 1-2.69-6.39 8.71 8.71 0 0 1 2.65-6.39zM11.16 14A6.54 6.54 0 0 0 16 16a6.54 6.54 0 0 0 4.81-2 6.54 6.54 0 0 0 2-4.8 6.52 6.52 0 0 0-2-4.8 6.54 6.54 0 0 0-4.81-2 6.54 6.54 0 0 0-4.8 2 6.52 6.52 0 0 0-2 4.8 6.54 6.54 0 0 0 1.96 4.8zm.39-9.22A6 6 0 0 1 16 3a6 6 0 0 1 4.42 1.8 6 6 0 0 1 1.8 4.42A6.15 6.15 0 0 1 16 15.43a6.15 6.15 0 0 1-6.25-6.21 6 6 0 0 1 1.8-4.42zm12.11 11.08l5.87 10.31h-6.78l-3.4 5.65-2.82-6.21 3.18-6.93a10.58 10.58 0 0 0 3.95-2.82z"></path>
		</symbol>
	
		<symbol id="run" viewBox="0 0 32 32">
			<path d="M22.57 11.39l-1.93 4.2 3 7.26-1.15 9-2.59-.33.86-6.77-2.76-5.2-2.31 4.76-5.88 4.46-1.44-2.12 5.15-3.94 4.78-14.3-2.94.77-.72 5.64-2.72-.35 1-7.89 7.91-1.72a3.81 3.81 0 0 1 .89 0 2.46 2.46 0 0 1 1.95 1.54l2.45 5.25 4.91.63-.36 2.82-7.09-.91zm2.1-5.61a2.53 2.53 0 0 0 2-.6 2.74 2.74 0 0 0 1.07-1.87 2.78 2.78 0 0 0-.56-2.08 2.6 2.6 0 0 0-3.81-.49 2.8 2.8 0 0 0-1.07 1.87 2.76 2.76 0 0 0 .57 2.08 2.55 2.55 0 0 0 1.8 1.09zM10.11 9.87H1v1.23h9zm-.42 3.06H2.83l-.08 1.22h6.78zm.81-6.06H2.21l-.09 1.22h8.2z"></path>
		</symbol>
	
		<symbol id="tjamp" viewBox="0 0 32 32">
			<path class="cls-1" d="M10 22.2a.85.85 0 0 1-.24-1.67 3 3 0 0 0 1.06-.84 8.21 8.21 0 0 1 4.84-2.63c2.87-.53 5.78 1.29 5.9 1.37a.85.85 0 0 1 .26 1.17.84.84 0 0 1-1.17.26A7.8 7.8 0 0 0 16 18.73a6.52 6.52 0 0 0-4 2.16 4.24 4.24 0 0 1-1.78 1.27.69.69 0 0 1-.22.04z"></path><path class="cls-1" d="M10 22.2a.94.94 0 0 1-.42-.11.85.85 0 0 1-.31-1.16s1.86-3.32 1.1-5.73a9.31 9.31 0 0 1 .28-6 .85.85 0 0 1 1.12-.44.84.84 0 0 1 .44 1.11A7.8 7.8 0 0 0 12 14.7c1 3.12-1.16 6.91-1.25 7.07a.85.85 0 0 1-.75.43z"></path><path class="cls-1" d="M16.86 30.79a19.88 19.88 0 0 1-4.43-.43C6.19 29 1.35 27.68.59 25.4a11.89 11.89 0 0 1-.09-6.6c.71-3.16 2.22-8.88 4.4-11.57 2.57-3.16 4.33-5.1 5.76-5.68a3.36 3.36 0 0 1 3.19.13l.51.24.3.14a9.89 9.89 0 0 1 2.77 1.75l.61.5a3.12 3.12 0 0 1 1.31 2.11 2.24 2.24 0 0 1-.43 1.52l-2.1 2.87a4 4 0 0 1-2.71 1.07H11a.85.85 0 0 1 0-1.7h3.12a2.3 2.3 0 0 0 1.5-.56l2-2.74c.07-.1.27-.53-.62-1.25l-.61-.5a8.36 8.36 0 0 0-2.46-1.53l-.29-.14-.49-.23a1.77 1.77 0 0 0-1.85-.1C10 3.65 7.54 6.68 6.23 8.3c-2 2.52-3.53 8.44-4.07 10.87a10.35 10.35 0 0 0 0 5.69c.52 1.56 7.33 3.1 10.6 3.84 4.72 1.07 12.35-.31 15-1.32a3.92 3.92 0 0 0 2.34-3.07l.07-.6c.06-1.35.06-4.9.06-6.76V16a1.91 1.91 0 0 0-.36-1.37c-.46-.45-1.73-.41-3.21-.36h-1.24c-2.29 0-4.68 3.2-5.41 4.41a.84.84 0 0 1-1.16.3.85.85 0 0 1-.3-1.17c.13-.21 3.15-5.18 6.84-5.24h1.21c1.94-.06 3.48-.11 4.45.83a3.44 3.44 0 0 1 .88 2.6v1c0 5.39 0 7-.15 7.66A5.61 5.61 0 0 1 28.37 29a37.65 37.65 0 0 1-11.51 1.79z"></path>
		</symbol>
	
		<symbol id="walk" viewBox="0 0 32 32">
			<path d="M18.18 14.31l-1.36-2.67L15.46 16l3.87 6.75v9h-2.58V25l-3.4-4.79-3.88 11.55H6.75l5.51-22.51-2.79 1.12V16H6.75V8.12l7.55-2.67a3.74 3.74 0 0 1 .88-.07 2.44 2.44 0 0 1 2.11 1.26l3.06 4.86h4.9v2.81zM20.08 5a2.56 2.56 0 0 1-3.81 0 2.75 2.75 0 0 1-.81-2 2.77 2.77 0 0 1 .81-2 2.58 2.58 0 0 1 3.81 0 2.74 2.74 0 0 1 .82 2 2.72 2.72 0 0 1-.82 2z"></path>
		</symbol>
	
</svg>
