<svg xmlns="http://www.w3.org/2000/svg" xmlns:xlink="http://www.w3.org/1999/xlink" width="0" height="0" style="position:absolute">
	
		<symbol id="activities" viewBox="0 0 32 32">
			<path d="M28.15 17.1a3.29 3.29 0 0 0-3.28 2.24h-2.64l-1.94-5.81a1.08 1.08 0 0 0-1-.75 1.08 1.08 0 0 0-1 .79l-3 10.56-3.66-21.37a1.09 1.09 0 0 0-1-.91 1.11 1.11 0 0 0-1.11.82L5.89 19.34h-4a1.09 1.09 0 0 0 0 2.18h4.9a1.09 1.09 0 0 0 1-.83l2.54-12.4 3.5 21a1.08 1.08 0 0 0 1 .91h.06a1.1 1.1 0 0 0 1.11-.84l3.38-11.81 1.07 3.22a1.1 1.1 0 0 0 1 .75h3.48a3.27 3.27 0 1 0 3.23-4.42z"></path>
		</symbol>
	
		<symbol id="address" viewBox="0 0 32 32">
			<path d="M29.71 14.86v4.57a1.14 1.14 0 0 1-1.14 1.14h-24a1.74 1.74 0 0 1-1.21-.5L.84 17.55a.57.57 0 0 1 0-.82l2.52-2.52a1.74 1.74 0 0 1 1.21-.5h9.14v-3.42h4.58v3.42h10.28a1.15 1.15 0 0 1 1.14 1.15zm1.45-8.73l-2.52 2.51a1.74 1.74 0 0 1-1.21.5h-24A1.15 1.15 0 0 1 2.28 8V3.43a1.15 1.15 0 0 1 1.15-1.14h10.28V1.14A1.15 1.15 0 0 1 14.86 0h2.28a1.15 1.15 0 0 1 1.15 1.14v1.15h9.14a1.69 1.69 0 0 1 1.21.5l2.52 2.51a.59.59 0 0 1 0 .83zM18.29 21.72v9.14A1.15 1.15 0 0 1 17.14 32h-2.28a1.15 1.15 0 0 1-1.15-1.14v-9.14z"></path>
		</symbol>
	
		<symbol id="android" viewBox="0 0 32 32">
			<path d="M1.92 9.92a1.93 1.93 0 0 1 1.41-.59 1.93 1.93 0 0 1 1.42.59 1.92 1.92 0 0 1 .58 1.41v8a1.92 1.92 0 0 1-.58 1.42 1.92 1.92 0 0 1-1.42.58 2 2 0 0 1-2-2v-8a1.93 1.93 0 0 1 .59-1.41zm18.66-7.84a7.12 7.12 0 0 1 3 2.46A9.75 9.75 0 0 1 25 7.25a11.7 11.7 0 0 1 .37 2.08H6.67Q7 4 11.33 2.08L9.83.25a.24.24 0 0 1 .09-.17l.25-.08 1.58 1.92A12.48 12.48 0 0 1 16 1.17a12.25 12.25 0 0 1 4.17.75L21.83 0a.27.27 0 0 1 .17.08l.17.17zM6.67 17v-6.33h18.66V24.5c0 .78-.3 1.17-.91 1.17h-2.34V30a2 2 0 0 1-2 2H20a2 2 0 0 1-1.17-.42 1.89 1.89 0 0 1-.75-1.58v-4.33H14V30a2 2 0 0 1-3.42 1.42A1.92 1.92 0 0 1 10 30v-4.33H7.58c-.61 0-.91-.39-.91-1.17zm5.25-10.75A1 1 0 0 0 13 5.17a1.18 1.18 0 0 0-.33-.79 1 1 0 0 0-.75-.38 1.09 1.09 0 0 0-.84.38 1.18 1.18 0 0 0-.33.79 1 1 0 0 0 .38.75 1.18 1.18 0 0 0 .79.33zm8.16 0a1.2 1.2 0 0 0 .8-.33 1 1 0 0 0 .37-.75 1.1 1.1 0 0 0-.37-.79 1.14 1.14 0 0 0-.8-.38Q19 4 19 5.17a1 1 0 0 0 1.08 1.08zm7.17 3.67a2 2 0 0 1 3.42 1.41v8a2 2 0 1 1-4 0v-8a1.92 1.92 0 0 1 .58-1.41z"></path>
		</symbol>
	
		<symbol id="apple" viewBox="0 0 32 32">
			<path d="M22.53 7.5a7.3 7.3 0 0 1 5.91 3.25 6.63 6.63 0 0 0-3.25 4.08 7.22 7.22 0 0 0 .42 5.17 6.65 6.65 0 0 0 3.75 3.5 24.87 24.87 0 0 1-2 3.83q-3 4.67-5.42 4.67h-.08a6.06 6.06 0 0 1-2.38-.67 6.92 6.92 0 0 0-2.87-.66 7.11 7.11 0 0 0-3 .66 6 6 0 0 1-2.37.67h-.09q-2.45 0-5.29-4.42a19.24 19.24 0 0 1-3.08-8.83q-.42-4.66 1.33-7.25c1.67-2.67 3.83-4 6.5-4a9.58 9.58 0 0 1 3.12.67 9.44 9.44 0 0 0 2.8.66 9.07 9.07 0 0 0 2.66-.66 9.75 9.75 0 0 1 3.34-.67zM21.86 0a7.09 7.09 0 0 1-1.5 5.17 5.73 5.73 0 0 1-4.67 2.5h-.08a6.45 6.45 0 0 1 1.5-5A6.65 6.65 0 0 1 21.86 0z"></path>
		</symbol>
	
		<symbol id="arrow-down" viewBox="0 0 32 32">
			<path d="M.79 7.45a2.72 2.72 0 0 0 0 3.83l13.44 13.4a2.7 2.7 0 0 0 3.73.08l13.24-13.2a2.7 2.7 0 1 0-3.82-3.83L16 18.93 4.62 7.44a2.7 2.7 0 0 0-3.83 0z"></path>
		</symbol>
	
		<symbol id="arrow-left" viewBox="0 0 32 32">
			<path d="M24.61.85a2.72 2.72 0 0 0-3.84 0L7.38 14.28A2.72 2.72 0 0 0 7.3 18l13.19 13.26a2.74 2.74 0 0 0 1.93.8 2.71 2.71 0 0 0 1.91-4.62L13.12 16.07l11.5-11.39a2.71 2.71 0 0 0 0-3.83z"></path>
		</symbol>
	
		<symbol id="arrow-right" viewBox="0 0 32 32">
			<path d="M7.39 31.27a2.73 2.73 0 0 0 3.84 0l13.39-13.44a2.7 2.7 0 0 0 .08-3.73L11.51.86a2.71 2.71 0 1 0-3.84 3.82l11.21 11.37-11.5 11.38a2.73 2.73 0 0 0 0 3.84z"></path>
		</symbol>
	
		<symbol id="arrow-up" viewBox="0 0 32 32">
			<path d="M31.21 24.92a2.72 2.72 0 0 0 0-3.83L17.77 7.69A2.7 2.7 0 0 0 14 7.61L.8 20.81a2.7 2.7 0 1 0 3.82 3.83L16 13.44l11.39 11.5a2.7 2.7 0 0 0 3.83 0z"></path>
		</symbol>
	
		<symbol id="calendar" viewBox="0 0 32 32">
			<path d="M31.35 2.36a.5.5 0 0 1 .57.57v28.42a.5.5 0 0 1-.57.57H.65a.5.5 0 0 1-.57-.57V2.93a.5.5 0 0 1 .57-.57h4v2.91a2.4 2.4 0 0 0 1 2A3.7 3.7 0 0 0 8 8a3.68 3.68 0 0 0 2.38-.82 2.4 2.4 0 0 0 1-1.95V2.36h9.1v2.91a2.38 2.38 0 0 0 1.06 2A3.85 3.85 0 0 0 24 8a3.61 3.61 0 0 0 2.31-.82 2.4 2.4 0 0 0 1-1.95V2.36zm-2.84 26.15V10.32h-25v18.19zM9.68 6.26A2.22 2.22 0 0 1 8 6.9a2.19 2.19 0 0 1-2.23-2.27V2.36A2.21 2.21 0 0 1 6.41.72 2.22 2.22 0 0 1 8 .08a2.26 2.26 0 0 1 1.68.64 2.25 2.25 0 0 1 .64 1.64v2.27a2.22 2.22 0 0 1-.64 1.63zm15.91 0A2.18 2.18 0 0 1 24 6.9a2.19 2.19 0 0 1-2.28-2.27V2.36a2.25 2.25 0 0 1 .6-1.64A2.26 2.26 0 0 1 24 .08a2.22 2.22 0 0 1 1.63.64 2.21 2.21 0 0 1 .64 1.64v2.27a2.18 2.18 0 0 1-.68 1.63z"></path>
		</symbol>
	
		<symbol id="camera" viewBox="0 0 32 32">
			<path d="M29.38 7.62a2.57 2.57 0 0 1 1.85.73 2.39 2.39 0 0 1 .77 1.8v15.54a2.63 2.63 0 0 1-2.62 2.62H2.62a2.53 2.53 0 0 1-1.85-.77A2.53 2.53 0 0 1 0 25.69V10.15a2.39 2.39 0 0 1 .77-1.8 2.57 2.57 0 0 1 1.85-.73h5.3l3-3.08a2.35 2.35 0 0 1 1.93-.85h6.46a2.47 2.47 0 0 1 1.77.77l3.15 3.16zM11 22.35a6.74 6.74 0 0 0 5 2.11 6.74 6.74 0 0 0 5-2.11 7.15 7.15 0 0 0 0-10.08 6.75 6.75 0 0 0-5-2.12 6.75 6.75 0 0 0-5 2.12 7.15 7.15 0 0 0 0 10.08zm1.19-8.85a5.38 5.38 0 0 1 7.62 0 5.41 5.41 0 0 1 0 7.62A5.19 5.19 0 0 1 16 22.69a5.36 5.36 0 0 1-5.38-5.38 5.19 5.19 0 0 1 1.57-3.81zm15.66-2.88a1.08 1.08 0 0 0 2.15 0 1.08 1.08 0 1 0-2.15 0z"></path>
		</symbol>
	
		<symbol id="challenge" viewBox="0 0 32 32">
			<path d="M32 5.13a20 20 0 0 1-1.57 8.71 14.39 14.39 0 0 1-4.5 5.36 15.69 15.69 0 0 1-5.5 2.5 7.86 7.86 0 0 1-3.29 2.21v2.36a2.13 2.13 0 0 0 0 .39 2.47 2.47 0 0 0 .43.83 4.19 4.19 0 0 0 1 1 6.69 6.69 0 0 0 2.11.86 13.57 13.57 0 0 0 3.46.39h.93v2.29H6.86v-2.26h.93q6.5 0 7.07-3.28v-2.58a7.86 7.86 0 0 1-3.29-2.21 15.74 15.74 0 0 1-5.5-2.5 14.39 14.39 0 0 1-4.5-5.36A17.57 17.57 0 0 1 0 6.91V4.63h5.71V.06h20.5a34.77 34.77 0 0 1 0 4.57H32zM3.64 12.84a11.76 11.76 0 0 0 5.5 5.57 31.83 31.83 0 0 1-3-9.64c0-.38-.12-1-.21-1.86H2.29a15.17 15.17 0 0 0 1.35 5.93zm24.72 0a15.17 15.17 0 0 0 1.35-5.93h-3.64c-.05.24-.11.56-.18 1a5.62 5.62 0 0 0-.1.89 31.83 31.83 0 0 1-3 9.64 11.68 11.68 0 0 0 5.57-5.6z"></path>
		</symbol>
	
		<symbol id="challenge-add" viewBox="0 0 32 32">
			<path d="M21.78 6.53a29.88 29.88 0 0 0 0-3.79h-17v3.79H.05v1.89a14.42 14.42 0 0 0 1.3 5.74 12 12 0 0 0 3.73 4.45 13.4 13.4 0 0 0 4.56 2.07 6.43 6.43 0 0 0 2.73 1.83v2.14c-.32 1.81-2.27 2.72-5.87 2.72h-.77v1.89h15.16v-1.89h-.77a11 11 0 0 1-2.87-.37 5.42 5.42 0 0 1-1.75-.71 3.3 3.3 0 0 1-.85-.86 1.94 1.94 0 0 1-.36-.68 2.23 2.23 0 0 1 0-.32v-2A6.43 6.43 0 0 0 17 20.68l.52-.15a7.52 7.52 0 0 1 3.58-8.84c.12-.56.23-1.13.34-1.73a4.73 4.73 0 0 1 .09-.74c.05-.34.1-.6.14-.8h3a14.77 14.77 0 0 1-.29 2.37h.29a7.59 7.59 0 0 1 1.59.17 24 24 0 0 0 .31-4v-.43zM3.07 13.34a12.76 12.76 0 0 1-1.13-4.92H5c.08.71.14 1.22.18 1.54a25.91 25.91 0 0 0 2.49 8 9.76 9.76 0 0 1-4.6-4.62z"></path><path d="M24.68 11.27a7 7 0 1 0 7 7 7 7 0 0 0-7-7zm3.17 7.58h-2.61v2.6a.56.56 0 0 1-.56.56.52.52 0 0 1-.39-.17.56.56 0 0 1-.17-.39v-2.6h-2.6a.56.56 0 0 1 0-1.12h2.6v-2.6a.57.57 0 0 1 .56-.56.56.56 0 0 1 .56.56v2.6h2.61a.56.56 0 0 1 0 1.12z"></path>
		</symbol>
	
		<symbol id="checkmark" viewBox="0 0 32 32">
			<path d="M31.85 4.77a1.18 1.18 0 0 1 .15.46 1.18 1.18 0 0 1-.15.46L12.69 30.31c-.31.31-.54.46-.69.46a1.1 1.1 0 0 1-.77-.39L.38 19.92l-.23-.23a1.18 1.18 0 0 1-.15-.46 1.32 1.32 0 0 1 .15-.38l.16-.16q2.15-2.31 3.38-3.54c.31-.3.52-.46.62-.46a1.32 1.32 0 0 1 .77.46l6.15 6L26.62 1.38a.62.62 0 0 1 .46-.15 1.3 1.3 0 0 1 .54.15z"></path>
		</symbol>
	
		<symbol id="close" viewBox="0 0 32 32">
			<path d="M31.59 26.86a1.21 1.21 0 0 1 0 1.66l-3.15 3.07a1.05 1.05 0 0 1-.75.33 1.13 1.13 0 0 1-.83-.33L16 20.73 5.14 31.59a1 1 0 0 1-.75.33 1.15 1.15 0 0 1-.83-.33L.41 28.52a1.21 1.21 0 0 1 0-1.66L11.36 16 .41 5.22a1 1 0 0 1 0-1.66L3.48.41a1.62 1.62 0 0 1 .83-.33 1.13 1.13 0 0 1 .83.33L16 11.19 26.86.41a1.62 1.62 0 0 1 .83-.33 1.13 1.13 0 0 1 .83.33l3.07 3.15a1 1 0 0 1 0 1.58L20.64 15.92z"></path>
		</symbol>
	
		<symbol id="coins" viewBox="0 0 32 32">
			<path d="M12 10a24.58 24.58 0 0 1 6 .69 13.59 13.59 0 0 1 4.38 1.81A3.12 3.12 0 0 1 24 15a3.12 3.12 0 0 1-1.62 2.5A13.59 13.59 0 0 1 18 19.31a24.58 24.58 0 0 1-6 .69 24.58 24.58 0 0 1-6-.69 13.43 13.43 0 0 1-4.37-1.81A3.11 3.11 0 0 1 0 15a3.11 3.11 0 0 1 1.63-2.5A13.43 13.43 0 0 1 6 10.69a24.58 24.58 0 0 1 6-.69zM0 18.75a13.49 13.49 0 0 0 5.19 2.44A27.51 27.51 0 0 0 12 22a27.51 27.51 0 0 0 6.81-.81A13.49 13.49 0 0 0 24 18.75V22c0 .71-.54 1.38-1.62 2A14.43 14.43 0 0 1 18 25.47a32 32 0 0 1-6 .53 32 32 0 0 1-6-.53A14.26 14.26 0 0 1 1.63 24C.54 23.38 0 22.71 0 22zm0 6.56a14.67 14.67 0 0 0 5.19 2.07A35.24 35.24 0 0 0 12 28a35.24 35.24 0 0 0 6.81-.62A14.67 14.67 0 0 0 24 25.31V28c0 .71-.54 1.38-1.62 2A14.71 14.71 0 0 1 18 31.47a32 32 0 0 1-6 .53 32 32 0 0 1-6-.53A14.53 14.53 0 0 1 1.63 30C.54 29.38 0 28.71 0 28zM20 8a32 32 0 0 1-6-.53A14.26 14.26 0 0 1 9.63 6C8.54 5.38 8 4.71 8 4s.54-1.37 1.63-2A14.53 14.53 0 0 1 14 .53 32 32 0 0 1 20 0a32 32 0 0 1 6 .53A14.71 14.71 0 0 1 30.38 2C31.46 2.63 32 3.29 32 4s-.54 1.38-1.62 2A14.43 14.43 0 0 1 26 7.47 32 32 0 0 1 20 8zm5.69 5.5a6.7 6.7 0 0 0-3.75-3.56 26.24 26.24 0 0 0 5.69-.81A13.43 13.43 0 0 0 32 7.31V10c0 .75-.57 1.44-1.72 2.06a14.88 14.88 0 0 1-4.59 1.44zm.31 5.94V15.5a14.46 14.46 0 0 0 6-2.19V16c0 .71-.54 1.38-1.62 2A14 14 0 0 1 26 19.44z"></path>
		</symbol>
	
		<symbol id="cycle" viewBox="0 0 32 32">
			<path d="M2 18.36a6.35 6.35 0 0 1 4.68-2 6.48 6.48 0 0 1 4.72 2 6.51 6.51 0 0 1 2 4.73 6.35 6.35 0 0 1-2 4.69 6.49 6.49 0 0 1-4.72 2 6.36 6.36 0 0 1-4.68-2 6.39 6.39 0 0 1-2-4.69 6.55 6.55 0 0 1 2-4.73zm1.4 8a4.49 4.49 0 0 0 3.28 1.36A4.59 4.59 0 0 0 10 26.39a4.45 4.45 0 0 0 1.4-3.3 4.55 4.55 0 0 0-1.4-3.33 4.51 4.51 0 0 0-3.32-1.4 4.41 4.41 0 0 0-3.28 1.4A4.59 4.59 0 0 0 2 23.09a4.49 4.49 0 0 0 1.36 3.3zm16.17-12.65l-2.14-3.23-3.07 3.23L17.14 16v8h-2.28v-6.14l-4.36-2.72a2.5 2.5 0 0 1-1.36-1.93 2.24 2.24 0 0 1 .65-1.65l5.14-4.94A2.14 2.14 0 0 1 16.5 6a2.33 2.33 0 0 1 2 1.15l2.43 4.3h4.21v2.29zm1.07 4.65a6.48 6.48 0 0 1 4.72-2 6.35 6.35 0 0 1 4.68 2 6.55 6.55 0 0 1 2 4.73 6.71 6.71 0 0 1-6.64 6.66 6.49 6.49 0 0 1-4.72-2 6.35 6.35 0 0 1-2-4.69 6.51 6.51 0 0 1 1.96-4.7zm2.4-12a2.32 2.32 0 0 1-1.68.68 2.43 2.43 0 0 1-1.72-.68 2.27 2.27 0 0 1-.71-1.69 2.42 2.42 0 0 1 2.43-2.43A2.27 2.27 0 0 1 23 3a2.43 2.43 0 0 1 .67 1.72A2.32 2.32 0 0 1 23 6.37zm-1 20a4.59 4.59 0 0 0 3.32 1.36A4.64 4.64 0 0 0 30 23.09a4.59 4.59 0 0 0-1.36-3.33 4.41 4.41 0 0 0-3.28-1.4 4.78 4.78 0 0 0-4.72 4.73 4.45 4.45 0 0 0 1.36 3.3z"></path>
		</symbol>
	
		<symbol id="distance" viewBox="0 0 32 32">
			<path d="M26.52 10.73v4.59a.5.5 0 1 1-1 0v-4.59h-4v6.73a.49.49 0 1 1-1 0v-6.73h-4v4.59a.49.49 0 1 1-1 0v-4.59h-4v6.73a.49.49 0 1 1-1 0v-6.73h-4v4.59a.49.49 0 1 1-1 0v-4.59H0v11.93h32V10.73z"></path>
		</symbol>
	
		<symbol id="edit" viewBox="0 0 32 32">
			<path d="M2.28 23.65l6.07 6.07L0 32zm24.9-12.41L9.35 29.15l-6.5-6.5L20.76 4.82zM31.39 4A2 2 0 0 1 32 5.6a2.43 2.43 0 0 1-.75 1.64L28 10.45 21.55 4 24.76.75A2.43 2.43 0 0 1 26.4 0a2 2 0 0 1 1.6.61z"></path>
		</symbol>
	
		<symbol id="facebook" viewBox="0 0 32 32">
			<path d="M18.67 10.67H24L23.33 16h-4.66v16h-6.92V16H8v-5.33h3.75V7.08a7.28 7.28 0 0 1 1.75-5.29Q15.26 0 19.33 0H24v5.33h-2.83a2.92 2.92 0 0 0-2.05.5 2.49 2.49 0 0 0-.45 1.67z"></path>
		</symbol>
	
		<symbol id="hero" viewBox="0 0 32 32">
			<path d="M16 6.6l2.15 6.45.39 1.18h8L21 18.09l-1 .74.42 1.22 2.13 6.27L17 22.38l-1-.72-1 .72-5.5 3.94 2.13-6.27.42-1.22-1.05-.74-5.53-3.86h8l.39-1.18L16 6.6m0-5.46L12.21 12.5H0l10 7-3.86 11.36L16 23.79l9.86 7.07L22 19.5l10-7H19.79L16 1.14z"></path>
		</symbol>
	
		<symbol id="home" viewBox="0 0 32 32">
			<path d="M16 0l16 12.75-1 1L16 1.67 1 13.75l-1-1 2.67-2.08v-8H8v3.75zm0 4l13.33 10.67V32H20V21.33h-8V32H2.67V14.67z"></path>
		</symbol>
	
		<symbol id="info" viewBox="0 0 32 32">
			<path d="M13.11 13.47h5.78V30h-5.78zm0-11.47h5.78v5.8h-5.78z"></path>
		</symbol>
	
		<symbol id="instagram" viewBox="0 0 32 32">
			<path d="M9.42 9.42a8.66 8.66 0 0 0-2.34 3.91H0V4a3.67 3.67 0 0 1 1.17-2.83A4.33 4.33 0 0 1 4.08 0h24a3.74 3.74 0 0 1 2.75 1.17A3.83 3.83 0 0 1 32 4v9.33h-7a8.73 8.73 0 0 0-2.33-3.91A9.07 9.07 0 0 0 16 6.67a8.94 8.94 0 0 0-6.58 2.75zm13.25 13.16A9 9 0 0 0 25.33 16H32v12a4.23 4.23 0 0 1-1.17 2.83A3.58 3.58 0 0 1 28.08 32h-24a3.85 3.85 0 0 1-2.83-1.17A3.9 3.9 0 0 1 0 28V16h6.75a8.92 8.92 0 0 0 2.67 6.58A8.94 8.94 0 0 0 16 25.33a9.07 9.07 0 0 0 6.67-2.75zm-6.67.09q-6.66 0-6.67-6.67T16 9.33q6.66 0 6.67 6.67T16 22.67zM29.33 7V3.75A1 1 0 0 0 29 3a1 1 0 0 0-.75-.33h-3.17a1.07 1.07 0 0 0-.75.33 1 1 0 0 0-.33.75V7a1 1 0 0 0 .33.75 1 1 0 0 0 .75.25h3.17a1 1 0 0 0 .75-.25 1 1 0 0 0 .33-.75z"></path>
		</symbol>
	
		<symbol id="key" viewBox="0 0 32 32">
			<path d="M15.52 13.74a7.73 7.73 0 0 0-7.08-5.08A7.19 7.19 0 0 0 1.31 16a7.31 7.31 0 0 0 7.28 7.34 7.55 7.55 0 0 0 6.93-5.08h7.26v4.52h4.88v-4.52h3v-4.52zm-6.89 4.7A2.44 2.44 0 1 1 11.06 16a2.45 2.45 0 0 1-2.43 2.44z"></path>
		</symbol>
	
		<symbol id="menu" viewBox="0 0 32 32">
			<path d="M2.67 24.89h26.66v-3H2.67zm0-7.41h26.66v-3H2.67zm0-10.37v3h26.66v-3z"></path>
		</symbol>
	
		<symbol id="minutes" viewBox="0 0 32 32">
			<path d="M16 5.2A12.51 12.51 0 1 1 3.49 17.71 12.41 12.41 0 0 1 16 5.2m0-1.73a14.25 14.25 0 1 0 10.25 4.36A14.25 14.25 0 0 0 16 3.47zm12.91 2.75L27.69 5l-2.27 2.28 1.22 1.22zM20.56.06h-9.12v1.73h9.12zm-3.7 8.53h-1.72v9.12h1.72z"></path>
		</symbol>
	
		<symbol id="organizer" viewBox="0 0 32 32">
			<path d="M26.8 1.8v28.4H5.2V1.8h21.6m.55-1.69H4.65a1.14 1.14 0 0 0-1.14 1.13v29.52a1.14 1.14 0 0 0 1.14 1.13h22.7a1.14 1.14 0 0 0 1.14-1.13V1.24A1.14 1.14 0 0 0 27.35.11zm-17 5.11a.56.56 0 0 0-.56-.57H8.62a.56.56 0 0 0-.57.57v1.13a.56.56 0 0 0 .57.57h1.14a.56.56 0 0 0 .56-.57zm0 4.54a.56.56 0 0 0-.56-.57H8.62a.56.56 0 0 0-.57.57v1.13a.56.56 0 0 0 .57.57h1.14a.56.56 0 0 0 .56-.57zm0 4.54a.56.56 0 0 0-.56-.57H8.62a.56.56 0 0 0-.57.57v1.13a.56.56 0 0 0 .57.57h1.14a.56.56 0 0 0 .56-.57zm0 4.54a.56.56 0 0 0-.56-.57H8.62a.56.56 0 0 0-.57.57V20a.56.56 0 0 0 .57.57h1.14a.56.56 0 0 0 .56-.57zm0 4.54a.56.56 0 0 0-.56-.57H8.62a.56.56 0 0 0-.57.57v1.13a.56.56 0 0 0 .57.57h1.14a.56.56 0 0 0 .56-.57zm2.27-17a.56.56 0 0 0 .57.57h1.11a.56.56 0 0 0 .56-.57V5.22a.56.56 0 0 0-.56-.57h-1.14a.56.56 0 0 0-.57.57zm0 4.54a.56.56 0 0 0 .57.57h1.11a.56.56 0 0 0 .56-.57V9.76a.56.56 0 0 0-.56-.57h-1.14a.56.56 0 0 0-.57.57zm0 4.54a.56.56 0 0 0 .57.57h1.11a.56.56 0 0 0 .56-.57V14.3a.56.56 0 0 0-.56-.57h-1.14a.56.56 0 0 0-.57.57zm0 4.54a.56.56 0 0 0 .57.57h1.11a.56.56 0 0 0 .56-.57v-1.16a.56.56 0 0 0-.56-.57h-1.14a.56.56 0 0 0-.57.57zm6.82 6c0-.48-.25-.85-.57-.85h-5.71c-.32 0-.57.37-.57.85v5c0 .48.25.85.57.85h5.68c.32 0 .57-.37.57-.85zm0-20.71a.56.56 0 0 0-.57-.57H17.7a.56.56 0 0 0-.57.57v1.06a.56.56 0 0 0 .57.57h1.14a.56.56 0 0 0 .57-.57zm0 4.54a.56.56 0 0 0-.57-.57H17.7a.56.56 0 0 0-.57.57v1.13a.56.56 0 0 0 .57.57h1.14a.56.56 0 0 0 .57-.57zm0 4.54a.56.56 0 0 0-.57-.57H17.7a.56.56 0 0 0-.57.57v1.13a.56.56 0 0 0 .57.57h1.14a.56.56 0 0 0 .57-.57zm0 4.54a.56.56 0 0 0-.57-.57H17.7a.56.56 0 0 0-.57.57V20a.56.56 0 0 0 .57.57h1.14a.56.56 0 0 0 .57-.57zM24 5.22a.56.56 0 0 0-.57-.57h-1.19a.56.56 0 0 0-.56.57v1.13a.56.56 0 0 0 .56.57h1.14a.56.56 0 0 0 .62-.57zm0 4.54a.56.56 0 0 0-.57-.57h-1.19a.56.56 0 0 0-.56.57v1.13a.56.56 0 0 0 .56.57h1.14a.56.56 0 0 0 .57-.57zm0 4.54a.56.56 0 0 0-.57-.57h-1.19a.56.56 0 0 0-.56.57v1.13a.56.56 0 0 0 .56.57h1.14a.56.56 0 0 0 .57-.57zm0 4.54a.56.56 0 0 0-.57-.57h-1.19a.56.56 0 0 0-.56.57V20a.56.56 0 0 0 .56.57h1.14A.56.56 0 0 0 24 20zm0 4.54a.56.56 0 0 0-.57-.57h-1.19a.56.56 0 0 0-.56.57v1.13a.56.56 0 0 0 .56.57h1.14a.56.56 0 0 0 .57-.57z"></path>
		</symbol>
	
		<symbol id="people" viewBox="0 0 32 32">
			<path d="M7.93 19.72a7.08 7.08 0 0 0-1.72 1.36c-.23.52-.4.79-.5.79H0A2.8 2.8 0 0 1 2.14 19s.26-.05.65-.14.71-.19 1-.29.45-.21.5-.36a5.67 5.67 0 0 0 .07-1.14 3.14 3.14 0 0 1-2.29-.5l.29-.86a3.19 3.19 0 0 0 .14-.39 1.46 1.46 0 0 0 .07-.39 19.5 19.5 0 0 0 .07-2 7.11 7.11 0 0 1 .57-3.5 2.93 2.93 0 0 1 2.72-1.28q2.93 0 3.36 2.65a9.67 9.67 0 0 1 .14 1.89v1.53a4.78 4.78 0 0 0 .36 1.72c.19.38.26.59.21.64l-.43.22a6.67 6.67 0 0 1-1.21.28 1.47 1.47 0 0 0-.65.07v.79a.45.45 0 0 0 .36.5 2.48 2.48 0 0 0 .54.14 4.42 4.42 0 0 1 .68.18 1 1 0 0 1 .42.25c.15.24.1.36-.14.36a6.15 6.15 0 0 0-1.5.35H8l-.36.15h.07a.83.83 0 0 0 .22-.15zm14.71.93A5.15 5.15 0 0 1 25 22.47a4.8 4.8 0 0 1 .89 2.83H6.07A4.49 4.49 0 0 1 8 21.37a12.2 12.2 0 0 1 3.5-1.15c1.14-.14 1.76-.45 1.86-.92a11.65 11.65 0 0 0 .07-1.65.48.48 0 0 0-.14-.35 3.24 3.24 0 0 1-.58-1 16.62 16.62 0 0 1-.28-1.72.4.4 0 0 1-.47-.21 2.68 2.68 0 0 1-.28-.75 5.26 5.26 0 0 1-.11-.54c-.19-1.05-.12-1.55.22-1.5a3.21 3.21 0 0 1-.36-1.36 6 6 0 0 1 .21-2.78 3.79 3.79 0 0 1 1.79-2.07 5.18 5.18 0 0 1 5.39.21 3.92 3.92 0 0 1 1.61 2.14 5.84 5.84 0 0 1 .07 2.79 3.38 3.38 0 0 1-.29 1.07.25.25 0 0 1 .33.14 1 1 0 0 1 .07.54c0 .21-.05.4-.07.57a1.32 1.32 0 0 1-.11.39l-.14.5a1.56 1.56 0 0 1-.25.72.43.43 0 0 1-.47.14 6 6 0 0 1-.5 2.22 1 1 0 0 1-.25.35c-.17.19-.25.31-.25.36v.79a3.21 3.21 0 0 0 .14 1.07c.1.23.43.43 1 .57a6.81 6.81 0 0 0 1.47.36 6.11 6.11 0 0 1 1.46.35zm-14.71-.93zM29.79 19A2.82 2.82 0 0 1 32 21.87h-5.71a3.55 3.55 0 0 0-1.15-1.36 5 5 0 0 0-2-1.07h-.35a1.5 1.5 0 0 1-.47-.07c-.12-.05-.15-.15-.11-.29a2 2 0 0 1 .93-.43c.72-.19 1.1-.35 1.15-.5v-1A9.22 9.22 0 0 1 23 17c-.29-.1-.55-.19-.79-.29s-.19-.35 0-.78a16.85 16.85 0 0 0 .36-3.64c.1-2.1.74-3.39 1.93-3.86a3.77 3.77 0 0 1 3.43.21 3.37 3.37 0 0 1 1.43 3.15v2.28a4.75 4.75 0 0 0 .14 1.07 3 3 0 0 0 .43 1.07c.14.24.14.38 0 .43a.29.29 0 0 1-.22.07.29.29 0 0 0-.21.08l-.86.21a4.13 4.13 0 0 1-.93.07 5 5 0 0 0 .07 1.22 1.72 1.72 0 0 0 .58.35 3.48 3.48 0 0 0 .82.22 3.72 3.72 0 0 1 .61.14z"></path>
		</symbol>
	
		<symbol id="prize" viewBox="0 0 32 32">
			<path d="M8.26 15.86A9.75 9.75 0 0 0 16 19.39a9.33 9.33 0 0 0 2.41-.28L16 24.34l-3.39 7.48-3.43-5.65H2.4zm1.31-13A8.71 8.71 0 0 1 16 .18a8.71 8.71 0 0 1 6.4 2.65A8.71 8.71 0 0 1 25 9.22a8.73 8.73 0 0 1-2.65 6.39A8.71 8.71 0 0 1 16 18.26a8.71 8.71 0 0 1-6.39-2.65 8.73 8.73 0 0 1-2.69-6.39 8.71 8.71 0 0 1 2.65-6.39zM11.16 14A6.54 6.54 0 0 0 16 16a6.54 6.54 0 0 0 4.81-2 6.54 6.54 0 0 0 2-4.8 6.52 6.52 0 0 0-2-4.8 6.54 6.54 0 0 0-4.81-2 6.54 6.54 0 0 0-4.8 2 6.52 6.52 0 0 0-2 4.8 6.54 6.54 0 0 0 1.96 4.8zm.39-9.22A6 6 0 0 1 16 3a6 6 0 0 1 4.42 1.8 6 6 0 0 1 1.8 4.42A6.15 6.15 0 0 1 16 15.43a6.15 6.15 0 0 1-6.25-6.21 6 6 0 0 1 1.8-4.42zm12.11 11.08l5.87 10.31h-6.78l-3.4 5.65-2.82-6.21 3.18-6.93a10.58 10.58 0 0 0 3.95-2.82z"></path>
		</symbol>
	
		<symbol id="profile" viewBox="0 0 32 32">
			<path d="M26.7 26.8c3.53 1.33 5.3 3.07 5.3 5.2H0c0-2.13 1.77-3.87 5.3-5.2a13.18 13.18 0 0 1 2.4-.55 18.59 18.59 0 0 0 1.9-.35 4.54 4.54 0 0 0 2-.9l.1-4.1a11.56 11.56 0 0 1-.9-1.8l-.7-3.2q-.7 0-.9-1.2a10.55 10.55 0 0 0-.35-1.4A4.47 4.47 0 0 1 8.6 12a1.71 1.71 0 0 1 .1-.65A.66.66 0 0 1 9 11h.1a17.86 17.86 0 0 1-.5-4.2 6.25 6.25 0 0 1 1.9-4.75A7.32 7.32 0 0 1 16 0a7.32 7.32 0 0 1 5.5 2.05 6.25 6.25 0 0 1 1.9 4.75l-.5 4.2c.33.07.5.4.5 1 0 .13-.2 1.07-.6 2.8a2.39 2.39 0 0 1-.3.8 1.16 1.16 0 0 1-.4.4h-.2a21 21 0 0 1-.7 3.1l-.9 1.8c-.13 2.47-.1 3.83.1 4.1a4.54 4.54 0 0 0 2 .9 18.59 18.59 0 0 0 1.9.35 13.18 13.18 0 0 1 2.4.55z"></path>
		</symbol>
	
		<symbol id="question" viewBox="0 0 32 32">
			<path d="M18.65 31.4h-5.3v-5.21h5.3zm-.08-7.86h-5.14c0-8.1 7.7-7.63 7.7-12.75A5.11 5.11 0 0 0 16 5.7a5.24 5.24 0 0 0-5.13 5.17H5.73a10.27 10.27 0 0 1 20.54-.08c0 6.4-7.7 7.13-7.7 12.75z"></path>
		</symbol>
	
		<symbol id="run" viewBox="0 0 32 32">
			<path d="M22.57 11.39l-1.93 4.2 3 7.26-1.15 9-2.59-.33.86-6.77-2.76-5.2-2.31 4.76-5.88 4.46-1.44-2.12 5.15-3.94 4.78-14.3-2.94.77-.72 5.64-2.72-.35 1-7.89 7.91-1.72a3.81 3.81 0 0 1 .89 0 2.46 2.46 0 0 1 1.95 1.54l2.45 5.25 4.91.63-.36 2.82-7.09-.91zm2.1-5.61a2.53 2.53 0 0 0 2-.6 2.74 2.74 0 0 0 1.07-1.87 2.78 2.78 0 0 0-.56-2.08 2.6 2.6 0 0 0-3.81-.49 2.8 2.8 0 0 0-1.07 1.87 2.76 2.76 0 0 0 .57 2.08 2.55 2.55 0 0 0 1.8 1.09zM10.11 9.87H1v1.23h9zm-.42 3.06H2.83l-.08 1.22h6.78zm.81-6.06H2.21l-.09 1.22h8.2z"></path>
		</symbol>
	
		<symbol id="settings" viewBox="0 0 32 32">
			<path d="M28 17.6l3.59 2.6a.86.86 0 0 1 .15 1.07l-3.28 5.42a.67.67 0 0 1-.92.38l-4.12-1.6a15.07 15.07 0 0 1-2.75 1.6l-.61 4.2a.76.76 0 0 1-.84.61h-6.5a.76.76 0 0 1-.84-.61l-.61-4.2a14.33 14.33 0 0 1-2.75-1.6l-4.12 1.6c-.41.2-.72.08-.92-.38L.2 21.27c-.26-.46-.21-.82.15-1.07l3.44-2.6v-3.2L.27 11.8a.86.86 0 0 1-.15-1.07l3.29-5.42a.65.65 0 0 1 .91-.38l4.12 1.6a15.42 15.42 0 0 1 2.75-1.6l.61-4.2a.76.76 0 0 1 .84-.61h6.49a.76.76 0 0 1 .87.61l.54 4.2a14.33 14.33 0 0 1 2.75 1.6l4-1.6c.41-.2.74-.08 1 .38l3.29 5.42c.25.46.2.82-.16 1.07L28 14.4V16a11.66 11.66 0 0 1 0 1.6zM11.84 20a5.52 5.52 0 0 0 4 1.6 5.65 5.65 0 0 0 4-1.6 5.27 5.27 0 0 0 1.68-4 5.27 5.27 0 0 0-1.68-4 5.65 5.65 0 0 0-4-1.6 5.52 5.52 0 0 0-4 1.6 5.34 5.34 0 0 0-1.64 4 5.34 5.34 0 0 0 1.64 4z"></path>
		</symbol>
	
		<symbol id="share" viewBox="0 0 32 32">
			<path d="M23.79 21.74a3.8 3.8 0 0 0-2.71 1L11.16 17a4.73 4.73 0 0 0 .14-1 4.63 4.63 0 0 0-.14-1L21 9.44a4.15 4.15 0 1 0-1.32-3 4.54 4.54 0 0 0 .14 1L10 13a4.17 4.17 0 0 0-2.84-1.11 4.11 4.11 0 0 0-4.09 4.15 4.18 4.18 0 0 0 7 3l9.86 5.73a3.54 3.54 0 0 0-.14.9 4 4 0 1 0 4-4z"></path>
		</symbol>
	
		<symbol id="sneakpeek" viewBox="0 0 32 32">
			<path d="M2.3 19.92h13.23c0 2.21-3 4-6.61 4s-6.62-1.79-6.62-4zm20.94 4c3.65 0 6.61-1.8 6.61-4H16.63c0 2.21 2.96 4.01 6.61 4.01zm8.86-8.61H.28c0-.48 2.75-1.45 6.93-2.12l.61-2.46h16.64l.68 2.46c4.2.66 6.96 1.64 6.96 2.12zm-8-5.86h-16l.78-3.12h14.36z"></path>
		</symbol>
	
		<symbol id="swimming" viewBox="0 0 32 32">
			<path d="M32 24.65v3.18l-6.36-3.18-4.24 3.18-5.3-3.18-5.31 3.18-5.3-3.18-5.35 3.18v-3.18l5.3-3.18 5.3 3.18 5.31-3.18 5.3 3.18 4.24-3.18zm-5.87-6.36a3.72 3.72 0 1 0-3.72-3.71 3.71 3.71 0 0 0 3.72 3.71z"></path><path d="M10.74 21.47l5.31-3.19 5.3 3.19 2.13-2.13-6.37-8.48 5.43-3.25a1.83 1.83 0 0 0 .94-2.06c0-.44-.77-1-1.9-1a4.17 4.17 0 0 0-.92.31l-7 3.56a1.89 1.89 0 0 0-.79 2.58l2.06 3-8.43 4.28z"></path>
		</symbol>
	
		<symbol id="tjamp" viewBox="0 0 32 32">
			<path d="M10 22.2a.85.85 0 0 1-.24-1.67 3 3 0 0 0 1.06-.84 8.21 8.21 0 0 1 4.84-2.63c2.87-.53 5.78 1.29 5.9 1.37a.85.85 0 0 1 .26 1.17.84.84 0 0 1-1.17.26A7.8 7.8 0 0 0 16 18.73a6.52 6.52 0 0 0-4 2.16 4.24 4.24 0 0 1-1.78 1.27.69.69 0 0 1-.22.04z"></path><path d="M10 22.2a.94.94 0 0 1-.42-.11.85.85 0 0 1-.31-1.16s1.86-3.32 1.1-5.73a9.31 9.31 0 0 1 .28-6 .85.85 0 0 1 1.12-.44.84.84 0 0 1 .44 1.11A7.8 7.8 0 0 0 12 14.7c1 3.12-1.16 6.91-1.25 7.07a.85.85 0 0 1-.75.43z"></path><path d="M16.86 30.79a19.88 19.88 0 0 1-4.43-.43C6.19 29 1.35 27.68.59 25.4a11.89 11.89 0 0 1-.09-6.6c.71-3.16 2.22-8.88 4.4-11.57 2.57-3.16 4.33-5.1 5.76-5.68a3.36 3.36 0 0 1 3.19.13l.51.24.3.14a9.89 9.89 0 0 1 2.77 1.75l.61.5a3.12 3.12 0 0 1 1.31 2.11 2.24 2.24 0 0 1-.43 1.52l-2.1 2.87a4 4 0 0 1-2.71 1.07H11a.85.85 0 0 1 0-1.7h3.12a2.3 2.3 0 0 0 1.5-.56l2-2.74c.07-.1.27-.53-.62-1.25l-.61-.5a8.36 8.36 0 0 0-2.46-1.53l-.29-.14-.49-.23a1.77 1.77 0 0 0-1.85-.1C10 3.65 7.54 6.68 6.23 8.3c-2 2.52-3.53 8.44-4.07 10.87a10.35 10.35 0 0 0 0 5.69c.52 1.56 7.33 3.1 10.6 3.84 4.72 1.07 12.35-.31 15-1.32a3.92 3.92 0 0 0 2.34-3.07l.07-.6c.06-1.35.06-4.9.06-6.76V16a1.91 1.91 0 0 0-.36-1.37c-.46-.45-1.73-.41-3.21-.36h-1.24c-2.29 0-4.68 3.2-5.41 4.41a.84.84 0 0 1-1.16.3.85.85 0 0 1-.3-1.17c.13-.21 3.15-5.18 6.84-5.24h1.21c1.94-.06 3.48-.11 4.45.83a3.44 3.44 0 0 1 .88 2.6v1c0 5.39 0 7-.15 7.66A5.61 5.61 0 0 1 28.37 29a37.65 37.65 0 0 1-11.51 1.79z"></path>
		</symbol>
	
		<symbol id="type" viewBox="0 0 32 32">
			<path d="M6.4 20.8a1.51 1.51 0 0 1 1.12.48A1.51 1.51 0 0 1 8 22.4v4.8a1.51 1.51 0 0 1-.48 1.12 1.51 1.51 0 0 1-1.12.48H1.6a1.51 1.51 0 0 1-1.12-.48A1.51 1.51 0 0 1 0 27.2v-4.8a1.51 1.51 0 0 1 .48-1.12 1.51 1.51 0 0 1 1.12-.48zm-1.2-4v2.4H2.8v-2.9a1.78 1.78 0 0 1 .58-1.3 1.78 1.78 0 0 1 1.32-.6h10.1v-3.2h-2a1.6 1.6 0 0 1-1.6-1.6V4.8a1.62 1.62 0 0 1 1.6-1.6h6.4a1.62 1.62 0 0 1 1.6 1.6v4.8a1.6 1.6 0 0 1-1.6 1.6h-2v3.2h10.1a2 2 0 0 1 1.9 1.9v2.9h-2.4v-2.4h-9.6v2.4h-2.4v-2.4zm13.2 4a1.64 1.64 0 0 1 1.6 1.6v4.8a1.64 1.64 0 0 1-1.6 1.6h-4.8a1.64 1.64 0 0 1-1.6-1.6v-4.8a1.64 1.64 0 0 1 1.6-1.6zm12 0a1.64 1.64 0 0 1 1.6 1.6v4.8a1.64 1.64 0 0 1-1.6 1.6h-4.8a1.64 1.64 0 0 1-1.6-1.6v-4.8a1.64 1.64 0 0 1 1.6-1.6z"></path>
		</symbol>
	
		<symbol id="walk" viewBox="0 0 32 32">
			<path d="M18.41 23.94c1.64.56 3.08.92 5.15 1.55-.79 10.07-10.31 6.07-5.15-1.55zm8.5-9.25c-.11-3-.64-7-4.88-6.36-2 .52-3.45 2.7-4.15 6.47a18.46 18.46 0 0 0 .29 6.72c.41 1.22.27 1.15.71 1.38 1.7.38 3.38.81 5.1 1.24 1.74-1.23 3.17-7.76 2.93-9.45zm-13.08-.23a18.45 18.45 0 0 0 .29-6.72C13.42 4 12 1.79 10 1.27 5.73.65 5.2 4.62 5.09 7.64 4.85 9.33 6.28 15.86 8 17.09c1.72-.44 3.4-.86 5.1-1.24.46-.24.32-.16.73-1.39zm-5.39 4c.79 10.06 10.31 6.07 5.15-1.55-1.59.54-3.08.89-5.15 1.53z"></path>
		</symbol>
	
</svg>
